<mxfile host="Electron" agent="Mozilla/5.0 (Windows NT 10.0; Win64; x64) AppleWebKit/537.36 (KHTML, like Gecko) draw.io/28.0.4 Chrome/138.0.7204.97 Electron/37.2.1 Safari/537.36" version="28.0.4">
  <diagram id="ybjzXieHyn0JRRMIvnlo" name="Strona-1">
    <mxGraphModel dx="786" dy="1685" grid="1" gridSize="10" guides="1" tooltips="1" connect="1" arrows="0" fold="1" page="1" pageScale="1" pageWidth="827" pageHeight="1169" math="0" shadow="0">
      <root>
        <mxCell id="0" />
        <mxCell id="1" parent="0" />
        <mxCell id="UTBrPVDNq_zUBes7hR2i-1" value="MainApplication" style="swimlane;fontStyle=1;align=center;verticalAlign=top;childLayout=stackLayout;horizontal=1;startSize=26;horizontalStack=0;resizeParent=1;resizeParentMax=0;resizeLast=0;collapsible=1;marginBottom=0;" parent="1" vertex="1">
          <mxGeometry x="140" y="-282" width="300" height="200" as="geometry" />
        </mxCell>
        <mxCell id="UTBrPVDNq_zUBes7hR2i-2" value="- soundsStorage : SoundsStorage&#xa;- graphicsStorage : GraphicsStorage&#xa;- client: Client&#xa;- connector : JoiningClientsConnector&#xa;- server : Server&#xa;- menu : IMenuController&#xa;- currentSettings : Settings&#xa;" style="text;strokeColor=none;fillColor=none;align=left;verticalAlign=top;spacingLeft=4;spacingRight=4;overflow=hidden;rotatable=0;points=[[0,0.5],[1,0.5]];portConstraint=eastwest;" parent="UTBrPVDNq_zUBes7hR2i-1" vertex="1">
          <mxGeometry y="26" width="300" height="110" as="geometry" />
        </mxCell>
        <mxCell id="UTBrPVDNq_zUBes7hR2i-3" value="" style="line;strokeWidth=1;fillColor=none;align=left;verticalAlign=middle;spacingTop=-1;spacingLeft=3;spacingRight=3;rotatable=0;labelPosition=right;points=[];portConstraint=eastwest;" parent="UTBrPVDNq_zUBes7hR2i-1" vertex="1">
          <mxGeometry y="136" width="300" height="8" as="geometry" />
        </mxCell>
        <mxCell id="UTBrPVDNq_zUBes7hR2i-4" value="+ run(): void&#xa;+ handle(MenuCommand) : void&#xa;+ handle(GameCommand) : void" style="text;strokeColor=none;fillColor=none;align=left;verticalAlign=top;spacingLeft=4;spacingRight=4;overflow=hidden;rotatable=0;points=[[0,0.5],[1,0.5]];portConstraint=eastwest;" parent="UTBrPVDNq_zUBes7hR2i-1" vertex="1">
          <mxGeometry y="144" width="300" height="56" as="geometry" />
        </mxCell>
        <mxCell id="rLUBzJlDn_tjM5czwzCR-1" style="edgeStyle=orthogonalEdgeStyle;rounded=0;orthogonalLoop=1;jettySize=auto;html=1;endArrow=open;endFill=0;endSize=14;" parent="1" source="G27WGiiaCzAnjPOhc22A-13" target="in2eyDOJDBMRCDKq5YES-4" edge="1">
          <mxGeometry relative="1" as="geometry">
            <Array as="points">
              <mxPoint x="910" y="-270" />
              <mxPoint x="910" y="-270" />
            </Array>
          </mxGeometry>
        </mxCell>
        <mxCell id="rLUBzJlDn_tjM5czwzCR-2" value="subscribe to" style="edgeLabel;html=1;align=center;verticalAlign=middle;resizable=0;points=[];" parent="rLUBzJlDn_tjM5czwzCR-1" vertex="1" connectable="0">
          <mxGeometry x="-0.2327" y="-1" relative="1" as="geometry">
            <mxPoint x="-34" y="3" as="offset" />
          </mxGeometry>
        </mxCell>
        <mxCell id="UTBrPVDNq_zUBes7hR2i-5" value="LocalClient" style="swimlane;fontStyle=1;align=center;verticalAlign=top;childLayout=stackLayout;horizontal=1;startSize=26;horizontalStack=0;resizeParent=1;resizeParentMax=0;resizeLast=0;collapsible=1;marginBottom=0;" parent="1" vertex="1">
          <mxGeometry x="1020" y="-230" width="190" height="150" as="geometry" />
        </mxCell>
        <mxCell id="UTBrPVDNq_zUBes7hR2i-6" value="- display : Display&#xa;- scene : GameScene&#xa;- cursor : MouseCursor&#xa;- hud : HUD&#xa;- playerInput : PlayerInput&#xa;" style="text;strokeColor=none;fillColor=none;align=left;verticalAlign=top;spacingLeft=4;spacingRight=4;overflow=hidden;rotatable=0;points=[[0,0.5],[1,0.5]];portConstraint=eastwest;" parent="UTBrPVDNq_zUBes7hR2i-5" vertex="1">
          <mxGeometry y="26" width="190" height="84" as="geometry" />
        </mxCell>
        <mxCell id="UTBrPVDNq_zUBes7hR2i-7" value="" style="line;strokeWidth=1;fillColor=none;align=left;verticalAlign=middle;spacingTop=-1;spacingLeft=3;spacingRight=3;rotatable=0;labelPosition=right;points=[];portConstraint=eastwest;" parent="UTBrPVDNq_zUBes7hR2i-5" vertex="1">
          <mxGeometry y="110" width="190" height="8" as="geometry" />
        </mxCell>
        <mxCell id="UTBrPVDNq_zUBes7hR2i-8" value="+ run() : void" style="text;strokeColor=none;fillColor=none;align=left;verticalAlign=top;spacingLeft=4;spacingRight=4;overflow=hidden;rotatable=0;points=[[0,0.5],[1,0.5]];portConstraint=eastwest;" parent="UTBrPVDNq_zUBes7hR2i-5" vertex="1">
          <mxGeometry y="118" width="190" height="32" as="geometry" />
        </mxCell>
        <mxCell id="UTBrPVDNq_zUBes7hR2i-9" style="edgeStyle=orthogonalEdgeStyle;rounded=0;orthogonalLoop=1;jettySize=auto;html=1;endArrow=diamondThin;endFill=1;endSize=14;" parent="1" source="G27WGiiaCzAnjPOhc22A-13" target="UTBrPVDNq_zUBes7hR2i-2" edge="1">
          <mxGeometry relative="1" as="geometry">
            <Array as="points">
              <mxPoint x="510" y="-530" />
              <mxPoint x="510" y="-218" />
            </Array>
            <mxPoint x="850" y="-472.002456140351" as="sourcePoint" />
            <mxPoint x="439.9999999999999" y="-212.1080000000002" as="targetPoint" />
          </mxGeometry>
        </mxCell>
        <mxCell id="UTBrPVDNq_zUBes7hR2i-14" style="edgeStyle=orthogonalEdgeStyle;rounded=0;orthogonalLoop=1;jettySize=auto;html=1;endArrow=diamondThin;endFill=1;endSize=14;" parent="1" source="GTzYMo_n2N5U_mKsKVs6-21" edge="1">
          <mxGeometry relative="1" as="geometry">
            <Array as="points">
              <mxPoint x="480" y="770" />
              <mxPoint x="480" y="-178" />
            </Array>
            <mxPoint x="530" y="539" as="sourcePoint" />
            <mxPoint x="440.0000000000001" y="-178.00000000000023" as="targetPoint" />
          </mxGeometry>
        </mxCell>
        <mxCell id="UTBrPVDNq_zUBes7hR2i-49" style="edgeStyle=orthogonalEdgeStyle;rounded=0;orthogonalLoop=1;jettySize=auto;html=1;endArrow=openThin;endFill=0;endSize=14;" parent="1" source="UTBrPVDNq_zUBes7hR2i-10" target="UTBrPVDNq_zUBes7hR2i-1" edge="1">
          <mxGeometry relative="1" as="geometry">
            <Array as="points">
              <mxPoint x="390" y="980" />
            </Array>
          </mxGeometry>
        </mxCell>
        <mxCell id="UTBrPVDNq_zUBes7hR2i-50" value="connect via handle" style="edgeLabel;html=1;align=center;verticalAlign=middle;resizable=0;points=[];" parent="UTBrPVDNq_zUBes7hR2i-49" vertex="1" connectable="0">
          <mxGeometry x="0.108" y="-1" relative="1" as="geometry">
            <mxPoint x="59" y="511" as="offset" />
          </mxGeometry>
        </mxCell>
        <mxCell id="UTBrPVDNq_zUBes7hR2i-10" value="MenuController" style="swimlane;fontStyle=1;align=center;verticalAlign=top;childLayout=stackLayout;horizontal=1;startSize=26;horizontalStack=0;resizeParent=1;resizeParentMax=0;resizeLast=0;collapsible=1;marginBottom=0;" parent="1" vertex="1">
          <mxGeometry x="542.5" y="950" width="175" height="90" as="geometry" />
        </mxCell>
        <mxCell id="UTBrPVDNq_zUBes7hR2i-11" value="- current : Menu&#xa;- allMenus : Menus" style="text;strokeColor=none;fillColor=none;align=left;verticalAlign=top;spacingLeft=4;spacingRight=4;overflow=hidden;rotatable=0;points=[[0,0.5],[1,0.5]];portConstraint=eastwest;" parent="UTBrPVDNq_zUBes7hR2i-10" vertex="1">
          <mxGeometry y="26" width="175" height="44" as="geometry" />
        </mxCell>
        <mxCell id="UTBrPVDNq_zUBes7hR2i-12" value="" style="line;strokeWidth=1;fillColor=none;align=left;verticalAlign=middle;spacingTop=-1;spacingLeft=3;spacingRight=3;rotatable=0;labelPosition=right;points=[];portConstraint=eastwest;" parent="UTBrPVDNq_zUBes7hR2i-10" vertex="1">
          <mxGeometry y="70" width="175" height="8" as="geometry" />
        </mxCell>
        <mxCell id="UTBrPVDNq_zUBes7hR2i-13" value="&#xa;" style="text;strokeColor=none;fillColor=none;align=left;verticalAlign=top;spacingLeft=4;spacingRight=4;overflow=hidden;rotatable=0;points=[[0,0.5],[1,0.5]];portConstraint=eastwest;" parent="UTBrPVDNq_zUBes7hR2i-10" vertex="1">
          <mxGeometry y="78" width="175" height="12" as="geometry" />
        </mxCell>
        <mxCell id="UTBrPVDNq_zUBes7hR2i-20" style="edgeStyle=orthogonalEdgeStyle;rounded=0;orthogonalLoop=1;jettySize=auto;html=1;endArrow=diamondThin;endFill=1;endSize=14;" parent="1" source="UTBrPVDNq_zUBes7hR2i-15" target="UTBrPVDNq_zUBes7hR2i-10" edge="1">
          <mxGeometry relative="1" as="geometry">
            <Array as="points">
              <mxPoint x="770" y="960" />
              <mxPoint x="770" y="960" />
            </Array>
          </mxGeometry>
        </mxCell>
        <mxCell id="UTBrPVDNq_zUBes7hR2i-51" style="edgeStyle=orthogonalEdgeStyle;rounded=0;orthogonalLoop=1;jettySize=auto;html=1;endArrow=openThin;endFill=0;endSize=14;" parent="1" source="GTzYMo_n2N5U_mKsKVs6-6" target="GTzYMo_n2N5U_mKsKVs6-21" edge="1">
          <mxGeometry relative="1" as="geometry">
            <Array as="points">
              <mxPoint x="1470" y="795" />
            </Array>
          </mxGeometry>
        </mxCell>
        <mxCell id="UTBrPVDNq_zUBes7hR2i-52" value="connect via handle" style="edgeLabel;html=1;align=center;verticalAlign=middle;resizable=0;points=[];" parent="UTBrPVDNq_zUBes7hR2i-51" vertex="1" connectable="0">
          <mxGeometry x="-0.2106" y="-1" relative="1" as="geometry">
            <mxPoint x="-168" y="-13" as="offset" />
          </mxGeometry>
        </mxCell>
        <mxCell id="UTBrPVDNq_zUBes7hR2i-15" value="Menu" style="swimlane;fontStyle=1;align=center;verticalAlign=top;childLayout=stackLayout;horizontal=1;startSize=26;horizontalStack=0;resizeParent=1;resizeParentMax=0;resizeLast=0;collapsible=1;marginBottom=0;" parent="1" vertex="1">
          <mxGeometry x="802.5" y="950" width="205" height="160" as="geometry" />
        </mxCell>
        <mxCell id="UTBrPVDNq_zUBes7hR2i-16" value="- staticWidgets : StaticWidgets&#xa;- inputWidgets : ControlWidgets" style="text;strokeColor=none;fillColor=none;align=left;verticalAlign=top;spacingLeft=4;spacingRight=4;overflow=hidden;rotatable=0;points=[[0,0.5],[1,0.5]];portConstraint=eastwest;" parent="UTBrPVDNq_zUBes7hR2i-15" vertex="1">
          <mxGeometry y="26" width="205" height="44" as="geometry" />
        </mxCell>
        <mxCell id="UTBrPVDNq_zUBes7hR2i-17" value="" style="line;strokeWidth=1;fillColor=none;align=left;verticalAlign=middle;spacingTop=-1;spacingLeft=3;spacingRight=3;rotatable=0;labelPosition=right;points=[];portConstraint=eastwest;" parent="UTBrPVDNq_zUBes7hR2i-15" vertex="1">
          <mxGeometry y="70" width="205" height="8" as="geometry" />
        </mxCell>
        <mxCell id="UTBrPVDNq_zUBes7hR2i-18" value="+ addWidget(Widget) : void&#xa;+ connect(WidgetConnection) : void&#xa;+ show() : void&#xa;+ hide() : void" style="text;strokeColor=none;fillColor=none;align=left;verticalAlign=top;spacingLeft=4;spacingRight=4;overflow=hidden;rotatable=0;points=[[0,0.5],[1,0.5]];portConstraint=eastwest;" parent="UTBrPVDNq_zUBes7hR2i-15" vertex="1">
          <mxGeometry y="78" width="205" height="82" as="geometry" />
        </mxCell>
        <mxCell id="UTBrPVDNq_zUBes7hR2i-25" style="edgeStyle=orthogonalEdgeStyle;rounded=0;orthogonalLoop=1;jettySize=auto;html=1;endArrow=diamondThin;endFill=1;endSize=14;" parent="1" target="UTBrPVDNq_zUBes7hR2i-2" edge="1">
          <mxGeometry relative="1" as="geometry">
            <Array as="points">
              <mxPoint x="510" y="67" />
              <mxPoint x="510" y="-192" />
            </Array>
            <mxPoint x="850" y="67" as="sourcePoint" />
            <mxPoint x="440" y="-183" as="targetPoint" />
          </mxGeometry>
        </mxCell>
        <mxCell id="rLUBzJlDn_tjM5czwzCR-3" value="update" style="edgeStyle=orthogonalEdgeStyle;rounded=0;orthogonalLoop=1;jettySize=auto;html=1;endArrow=open;endFill=0;endSize=14;" parent="1" source="in2eyDOJDBMRCDKq5YES-4" target="G27WGiiaCzAnjPOhc22A-13" edge="1">
          <mxGeometry x="0.0606" y="20" relative="1" as="geometry">
            <Array as="points">
              <mxPoint x="950" y="-200" />
              <mxPoint x="950" y="-200" />
            </Array>
            <mxPoint y="-1" as="offset" />
          </mxGeometry>
        </mxCell>
        <mxCell id="UTBrPVDNq_zUBes7hR2i-21" value="LocalServer" style="swimlane;fontStyle=1;align=center;verticalAlign=top;childLayout=stackLayout;horizontal=1;startSize=26;horizontalStack=0;resizeParent=1;resizeParentMax=0;resizeLast=0;collapsible=1;marginBottom=0;" parent="1" vertex="1">
          <mxGeometry x="950" y="265" width="200" height="120" as="geometry" />
        </mxCell>
        <mxCell id="UTBrPVDNq_zUBes7hR2i-22" value="- clients : Clients&#xa;- gameSession : GameSession" style="text;strokeColor=none;fillColor=none;align=left;verticalAlign=top;spacingLeft=4;spacingRight=4;overflow=hidden;rotatable=0;points=[[0,0.5],[1,0.5]];portConstraint=eastwest;" parent="UTBrPVDNq_zUBes7hR2i-21" vertex="1">
          <mxGeometry y="26" width="200" height="44" as="geometry" />
        </mxCell>
        <mxCell id="UTBrPVDNq_zUBes7hR2i-23" value="" style="line;strokeWidth=1;fillColor=none;align=left;verticalAlign=middle;spacingTop=-1;spacingLeft=3;spacingRight=3;rotatable=0;labelPosition=right;points=[];portConstraint=eastwest;" parent="UTBrPVDNq_zUBes7hR2i-21" vertex="1">
          <mxGeometry y="70" width="200" height="8" as="geometry" />
        </mxCell>
        <mxCell id="UTBrPVDNq_zUBes7hR2i-24" value="- pause() : void&#xa;- resume() : void" style="text;strokeColor=none;fillColor=none;align=left;verticalAlign=top;spacingLeft=4;spacingRight=4;overflow=hidden;rotatable=0;points=[[0,0.5],[1,0.5]];portConstraint=eastwest;" parent="UTBrPVDNq_zUBes7hR2i-21" vertex="1">
          <mxGeometry y="78" width="200" height="42" as="geometry" />
        </mxCell>
        <mxCell id="UTBrPVDNq_zUBes7hR2i-43" style="edgeStyle=orthogonalEdgeStyle;rounded=0;orthogonalLoop=1;jettySize=auto;html=1;endArrow=diamondThin;endFill=1;endSize=14;" parent="1" edge="1">
          <mxGeometry relative="1" as="geometry">
            <Array as="points">
              <mxPoint x="1420" y="-1020" />
              <mxPoint x="1310" y="-1020" />
              <mxPoint x="1310" y="-180" />
            </Array>
            <mxPoint x="1420" y="-1010" as="sourcePoint" />
            <mxPoint x="1210" y="-180.00000000000023" as="targetPoint" />
          </mxGeometry>
        </mxCell>
        <mxCell id="UTBrPVDNq_zUBes7hR2i-26" value="GameScene" style="swimlane;fontStyle=1;align=center;verticalAlign=top;childLayout=stackLayout;horizontal=1;startSize=26;horizontalStack=0;resizeParent=1;resizeParentMax=0;resizeLast=0;collapsible=1;marginBottom=0;" parent="1" vertex="1">
          <mxGeometry x="1420" y="-1030" width="205" height="200" as="geometry" />
        </mxCell>
        <mxCell id="UTBrPVDNq_zUBes7hR2i-27" value="- display : Display&#xa;- animationsLayer : Layer&#xa;- gameLayer : Layer&#xa;- backgroundLayer : Layer&#xa;" style="text;strokeColor=none;fillColor=none;align=left;verticalAlign=top;spacingLeft=4;spacingRight=4;overflow=hidden;rotatable=0;points=[[0,0.5],[1,0.5]];portConstraint=eastwest;" parent="UTBrPVDNq_zUBes7hR2i-26" vertex="1">
          <mxGeometry y="26" width="205" height="74" as="geometry" />
        </mxCell>
        <mxCell id="UTBrPVDNq_zUBes7hR2i-28" value="" style="line;strokeWidth=1;fillColor=none;align=left;verticalAlign=middle;spacingTop=-1;spacingLeft=3;spacingRight=3;rotatable=0;labelPosition=right;points=[];portConstraint=eastwest;" parent="UTBrPVDNq_zUBes7hR2i-26" vertex="1">
          <mxGeometry y="100" width="205" height="8" as="geometry" />
        </mxCell>
        <mxCell id="UTBrPVDNq_zUBes7hR2i-29" value="+ update(GameSceneUpdate) : void&#xa;+ show() : void&#xa;+ hide() :void&#xa;+ start() : void&#xa;+ stop() : void&#xa;" style="text;strokeColor=none;fillColor=none;align=left;verticalAlign=top;spacingLeft=4;spacingRight=4;overflow=hidden;rotatable=0;points=[[0,0.5],[1,0.5]];portConstraint=eastwest;" parent="UTBrPVDNq_zUBes7hR2i-26" vertex="1">
          <mxGeometry y="108" width="205" height="92" as="geometry" />
        </mxCell>
        <mxCell id="UTBrPVDNq_zUBes7hR2i-44" style="edgeStyle=orthogonalEdgeStyle;rounded=0;orthogonalLoop=1;jettySize=auto;html=1;endArrow=diamondThin;endFill=1;endSize=14;" parent="1" source="VLuqZ6IwxMBX5vIu2LNy-3" edge="1">
          <mxGeometry relative="1" as="geometry">
            <Array as="points">
              <mxPoint x="1330" y="-770" />
              <mxPoint x="1330" y="-166" />
            </Array>
            <mxPoint x="1420" y="-756" as="sourcePoint" />
            <mxPoint x="1210" y="-166.00000000000023" as="targetPoint" />
          </mxGeometry>
        </mxCell>
        <mxCell id="UTBrPVDNq_zUBes7hR2i-45" style="edgeStyle=orthogonalEdgeStyle;rounded=0;orthogonalLoop=1;jettySize=auto;html=1;endArrow=diamondThin;endFill=1;endSize=14;" parent="1" source="UTBrPVDNq_zUBes7hR2i-34" target="UTBrPVDNq_zUBes7hR2i-6" edge="1">
          <mxGeometry relative="1" as="geometry">
            <Array as="points">
              <mxPoint x="1350" y="-590" />
              <mxPoint x="1350" y="-150" />
            </Array>
          </mxGeometry>
        </mxCell>
        <mxCell id="UTBrPVDNq_zUBes7hR2i-34" value="HUD" style="swimlane;fontStyle=1;align=center;verticalAlign=top;childLayout=stackLayout;horizontal=1;startSize=26;horizontalStack=0;resizeParent=1;resizeParentMax=0;resizeLast=0;collapsible=1;marginBottom=0;" parent="1" vertex="1">
          <mxGeometry x="1420" y="-600" width="200" height="180" as="geometry" />
        </mxCell>
        <mxCell id="UTBrPVDNq_zUBes7hR2i-35" value="- display : Display&#xa;- healthLevel : LevelIndicator&#xa;- armorLevel : LevelIndicator&#xa;- ammoLevel : LevelIndicator&#xa;- map : MiniMap " style="text;strokeColor=none;fillColor=none;align=left;verticalAlign=top;spacingLeft=4;spacingRight=4;overflow=hidden;rotatable=0;points=[[0,0.5],[1,0.5]];portConstraint=eastwest;" parent="UTBrPVDNq_zUBes7hR2i-34" vertex="1">
          <mxGeometry y="26" width="200" height="84" as="geometry" />
        </mxCell>
        <mxCell id="UTBrPVDNq_zUBes7hR2i-36" value="" style="line;strokeWidth=1;fillColor=none;align=left;verticalAlign=middle;spacingTop=-1;spacingLeft=3;spacingRight=3;rotatable=0;labelPosition=right;points=[];portConstraint=eastwest;" parent="UTBrPVDNq_zUBes7hR2i-34" vertex="1">
          <mxGeometry y="110" width="200" height="8" as="geometry" />
        </mxCell>
        <mxCell id="UTBrPVDNq_zUBes7hR2i-37" value="+ update(HUDUpdate) : void&#xa;+ show() : void&#xa;+ hide() : void" style="text;strokeColor=none;fillColor=none;align=left;verticalAlign=top;spacingLeft=4;spacingRight=4;overflow=hidden;rotatable=0;points=[[0,0.5],[1,0.5]];portConstraint=eastwest;" parent="UTBrPVDNq_zUBes7hR2i-34" vertex="1">
          <mxGeometry y="118" width="200" height="62" as="geometry" />
        </mxCell>
        <mxCell id="VLuqZ6IwxMBX5vIu2LNy-3" value="MouseCursor" style="swimlane;fontStyle=1;align=center;verticalAlign=top;childLayout=stackLayout;horizontal=1;startSize=26;horizontalStack=0;resizeParent=1;resizeParentMax=0;resizeLast=0;collapsible=1;marginBottom=0;" parent="1" vertex="1">
          <mxGeometry x="1420" y="-775" width="170" height="120" as="geometry" />
        </mxCell>
        <mxCell id="VLuqZ6IwxMBX5vIu2LNy-4" value="- display : Display&#xa;- menuPixmap : Pixmap&#xa;- gamePixmap : Pixmap" style="text;strokeColor=none;fillColor=none;align=left;verticalAlign=top;spacingLeft=4;spacingRight=4;overflow=hidden;rotatable=0;points=[[0,0.5],[1,0.5]];portConstraint=eastwest;" parent="VLuqZ6IwxMBX5vIu2LNy-3" vertex="1">
          <mxGeometry y="26" width="170" height="54" as="geometry" />
        </mxCell>
        <mxCell id="VLuqZ6IwxMBX5vIu2LNy-5" value="" style="line;strokeWidth=1;fillColor=none;align=left;verticalAlign=middle;spacingTop=-1;spacingLeft=3;spacingRight=3;rotatable=0;labelPosition=right;points=[];portConstraint=eastwest;" parent="VLuqZ6IwxMBX5vIu2LNy-3" vertex="1">
          <mxGeometry y="80" width="170" height="8" as="geometry" />
        </mxCell>
        <mxCell id="VLuqZ6IwxMBX5vIu2LNy-6" value="+ switch() : void" style="text;strokeColor=none;fillColor=none;align=left;verticalAlign=top;spacingLeft=4;spacingRight=4;overflow=hidden;rotatable=0;points=[[0,0.5],[1,0.5]];portConstraint=eastwest;" parent="VLuqZ6IwxMBX5vIu2LNy-3" vertex="1">
          <mxGeometry y="88" width="170" height="32" as="geometry" />
        </mxCell>
        <mxCell id="VLuqZ6IwxMBX5vIu2LNy-15" style="edgeStyle=orthogonalEdgeStyle;rounded=0;orthogonalLoop=1;jettySize=auto;html=1;entryX=1.006;entryY=0.34;entryDx=0;entryDy=0;entryPerimeter=0;endArrow=diamondThin;endFill=1;endSize=14;" parent="1" source="VLuqZ6IwxMBX5vIu2LNy-7" target="UTBrPVDNq_zUBes7hR2i-35" edge="1">
          <mxGeometry relative="1" as="geometry">
            <Array as="points">
              <mxPoint x="1680" y="-680" />
              <mxPoint x="1680" y="-545" />
            </Array>
          </mxGeometry>
        </mxCell>
        <mxCell id="VLuqZ6IwxMBX5vIu2LNy-7" value="LevelIndicator" style="swimlane;fontStyle=1;align=center;verticalAlign=top;childLayout=stackLayout;horizontal=1;startSize=26;horizontalStack=0;resizeParent=1;resizeParentMax=0;resizeLast=0;collapsible=1;marginBottom=0;" parent="1" vertex="1">
          <mxGeometry x="1710" y="-690" width="150" height="160" as="geometry" />
        </mxCell>
        <mxCell id="VLuqZ6IwxMBX5vIu2LNy-8" value="- display : Display&#xa;- typeIcon : Label&#xa;- indicator : Label" style="text;strokeColor=none;fillColor=none;align=left;verticalAlign=top;spacingLeft=4;spacingRight=4;overflow=hidden;rotatable=0;points=[[0,0.5],[1,0.5]];portConstraint=eastwest;" parent="VLuqZ6IwxMBX5vIu2LNy-7" vertex="1">
          <mxGeometry y="26" width="150" height="64" as="geometry" />
        </mxCell>
        <mxCell id="VLuqZ6IwxMBX5vIu2LNy-9" value="" style="line;strokeWidth=1;fillColor=none;align=left;verticalAlign=middle;spacingTop=-1;spacingLeft=3;spacingRight=3;rotatable=0;labelPosition=right;points=[];portConstraint=eastwest;" parent="VLuqZ6IwxMBX5vIu2LNy-7" vertex="1">
          <mxGeometry y="90" width="150" height="8" as="geometry" />
        </mxCell>
        <mxCell id="VLuqZ6IwxMBX5vIu2LNy-10" value="+ set(Level) : void&#xa;+ show() : void&#xa;+ hide() : void" style="text;strokeColor=none;fillColor=none;align=left;verticalAlign=top;spacingLeft=4;spacingRight=4;overflow=hidden;rotatable=0;points=[[0,0.5],[1,0.5]];portConstraint=eastwest;" parent="VLuqZ6IwxMBX5vIu2LNy-7" vertex="1">
          <mxGeometry y="98" width="150" height="62" as="geometry" />
        </mxCell>
        <mxCell id="VLuqZ6IwxMBX5vIu2LNy-16" style="edgeStyle=orthogonalEdgeStyle;rounded=0;orthogonalLoop=1;jettySize=auto;html=1;entryX=0.999;entryY=0.861;entryDx=0;entryDy=0;entryPerimeter=0;endArrow=diamondThin;endFill=1;endSize=14;" parent="1" source="VLuqZ6IwxMBX5vIu2LNy-11" target="UTBrPVDNq_zUBes7hR2i-35" edge="1">
          <mxGeometry relative="1" as="geometry">
            <Array as="points">
              <mxPoint x="1680" y="-490" />
              <mxPoint x="1680" y="-502" />
            </Array>
          </mxGeometry>
        </mxCell>
        <mxCell id="VLuqZ6IwxMBX5vIu2LNy-11" value="MiniMap" style="swimlane;fontStyle=1;align=center;verticalAlign=top;childLayout=stackLayout;horizontal=1;startSize=26;horizontalStack=0;resizeParent=1;resizeParentMax=0;resizeLast=0;collapsible=1;marginBottom=0;" parent="1" vertex="1">
          <mxGeometry x="1710" y="-505" width="190" height="160" as="geometry" />
        </mxCell>
        <mxCell id="VLuqZ6IwxMBX5vIu2LNy-12" value="- display : Display&#xa;- mapPixmap : Pixmap&#xa;- map : Label" style="text;strokeColor=none;fillColor=none;align=left;verticalAlign=top;spacingLeft=4;spacingRight=4;overflow=hidden;rotatable=0;points=[[0,0.5],[1,0.5]];portConstraint=eastwest;" parent="VLuqZ6IwxMBX5vIu2LNy-11" vertex="1">
          <mxGeometry y="26" width="190" height="64" as="geometry" />
        </mxCell>
        <mxCell id="VLuqZ6IwxMBX5vIu2LNy-13" value="" style="line;strokeWidth=1;fillColor=none;align=left;verticalAlign=middle;spacingTop=-1;spacingLeft=3;spacingRight=3;rotatable=0;labelPosition=right;points=[];portConstraint=eastwest;" parent="VLuqZ6IwxMBX5vIu2LNy-11" vertex="1">
          <mxGeometry y="90" width="190" height="8" as="geometry" />
        </mxCell>
        <mxCell id="VLuqZ6IwxMBX5vIu2LNy-14" value="+ update(MiniMapUpdate) : void&#xa;+ show() : void&#xa;+ hide() : void" style="text;strokeColor=none;fillColor=none;align=left;verticalAlign=top;spacingLeft=4;spacingRight=4;overflow=hidden;rotatable=0;points=[[0,0.5],[1,0.5]];portConstraint=eastwest;" parent="VLuqZ6IwxMBX5vIu2LNy-11" vertex="1">
          <mxGeometry y="98" width="190" height="62" as="geometry" />
        </mxCell>
        <mxCell id="VLuqZ6IwxMBX5vIu2LNy-21" style="edgeStyle=orthogonalEdgeStyle;rounded=0;orthogonalLoop=1;jettySize=auto;html=1;entryX=1.002;entryY=0.351;entryDx=0;entryDy=0;entryPerimeter=0;endArrow=diamondThin;endFill=1;endSize=14;exitX=0.004;exitY=0.069;exitDx=0;exitDy=0;exitPerimeter=0;" parent="1" source="VLuqZ6IwxMBX5vIu2LNy-17" target="UTBrPVDNq_zUBes7hR2i-27" edge="1">
          <mxGeometry relative="1" as="geometry">
            <Array as="points">
              <mxPoint x="1818" y="-1020" />
              <mxPoint x="1670" y="-1020" />
              <mxPoint x="1670" y="-978" />
            </Array>
          </mxGeometry>
        </mxCell>
        <mxCell id="VLuqZ6IwxMBX5vIu2LNy-17" value="Layer" style="swimlane;fontStyle=3;align=center;verticalAlign=top;childLayout=stackLayout;horizontal=1;startSize=26;horizontalStack=0;resizeParent=1;resizeParentMax=0;resizeLast=0;collapsible=1;marginBottom=0;" parent="1" vertex="1">
          <mxGeometry x="1820" y="-1030" width="174" height="140" as="geometry" />
        </mxCell>
        <mxCell id="VLuqZ6IwxMBX5vIu2LNy-18" value="- display : Display&#xa;- displayArea : GraphicsView&#xa;" style="text;strokeColor=none;fillColor=none;align=left;verticalAlign=top;spacingLeft=4;spacingRight=4;overflow=hidden;rotatable=0;points=[[0,0.5],[1,0.5]];portConstraint=eastwest;" parent="VLuqZ6IwxMBX5vIu2LNy-17" vertex="1">
          <mxGeometry y="26" width="174" height="44" as="geometry" />
        </mxCell>
        <mxCell id="VLuqZ6IwxMBX5vIu2LNy-19" value="" style="line;strokeWidth=1;fillColor=none;align=left;verticalAlign=middle;spacingTop=-1;spacingLeft=3;spacingRight=3;rotatable=0;labelPosition=right;points=[];portConstraint=eastwest;" parent="VLuqZ6IwxMBX5vIu2LNy-17" vertex="1">
          <mxGeometry y="70" width="174" height="8" as="geometry" />
        </mxCell>
        <mxCell id="VLuqZ6IwxMBX5vIu2LNy-20" value="+ update(LayerUpdate) : void&#xa;+ show() : void&#xa;+ hide() : void" style="text;strokeColor=none;fillColor=none;align=left;verticalAlign=top;spacingLeft=4;spacingRight=4;overflow=hidden;rotatable=0;points=[[0,0.5],[1,0.5]];portConstraint=eastwest;" parent="VLuqZ6IwxMBX5vIu2LNy-17" vertex="1">
          <mxGeometry y="78" width="174" height="62" as="geometry" />
        </mxCell>
        <mxCell id="VLuqZ6IwxMBX5vIu2LNy-36" style="edgeStyle=orthogonalEdgeStyle;rounded=0;orthogonalLoop=1;jettySize=auto;html=1;endArrow=block;endFill=0;endSize=14;entryX=0.327;entryY=0.993;entryDx=0;entryDy=0;entryPerimeter=0;" parent="1" source="VLuqZ6IwxMBX5vIu2LNy-26" target="VLuqZ6IwxMBX5vIu2LNy-20" edge="1">
          <mxGeometry relative="1" as="geometry" />
        </mxCell>
        <mxCell id="VLuqZ6IwxMBX5vIu2LNy-26" value="ObjectsLayer" style="swimlane;fontStyle=1;align=center;verticalAlign=top;childLayout=stackLayout;horizontal=1;startSize=26;horizontalStack=0;resizeParent=1;resizeParentMax=0;resizeLast=0;collapsible=1;marginBottom=0;" parent="1" vertex="1">
          <mxGeometry x="1710" y="-830" width="174" height="110" as="geometry" />
        </mxCell>
        <mxCell id="VLuqZ6IwxMBX5vIu2LNy-27" value="- objects : Objects&#xa;" style="text;strokeColor=none;fillColor=none;align=left;verticalAlign=top;spacingLeft=4;spacingRight=4;overflow=hidden;rotatable=0;points=[[0,0.5],[1,0.5]];portConstraint=eastwest;" parent="VLuqZ6IwxMBX5vIu2LNy-26" vertex="1">
          <mxGeometry y="26" width="174" height="34" as="geometry" />
        </mxCell>
        <mxCell id="VLuqZ6IwxMBX5vIu2LNy-28" value="" style="line;strokeWidth=1;fillColor=none;align=left;verticalAlign=middle;spacingTop=-1;spacingLeft=3;spacingRight=3;rotatable=0;labelPosition=right;points=[];portConstraint=eastwest;" parent="VLuqZ6IwxMBX5vIu2LNy-26" vertex="1">
          <mxGeometry y="60" width="174" height="8" as="geometry" />
        </mxCell>
        <mxCell id="VLuqZ6IwxMBX5vIu2LNy-29" value="+ start() : void&#xa;+ stop() : void" style="text;strokeColor=none;fillColor=none;align=left;verticalAlign=top;spacingLeft=4;spacingRight=4;overflow=hidden;rotatable=0;points=[[0,0.5],[1,0.5]];portConstraint=eastwest;" parent="VLuqZ6IwxMBX5vIu2LNy-26" vertex="1">
          <mxGeometry y="68" width="174" height="42" as="geometry" />
        </mxCell>
        <mxCell id="VLuqZ6IwxMBX5vIu2LNy-37" style="edgeStyle=orthogonalEdgeStyle;rounded=0;orthogonalLoop=1;jettySize=auto;html=1;entryX=0.629;entryY=1.01;entryDx=0;entryDy=0;entryPerimeter=0;endArrow=block;endFill=0;endSize=14;" parent="1" source="VLuqZ6IwxMBX5vIu2LNy-31" target="VLuqZ6IwxMBX5vIu2LNy-20" edge="1">
          <mxGeometry relative="1" as="geometry" />
        </mxCell>
        <mxCell id="VLuqZ6IwxMBX5vIu2LNy-31" value="BackgroundLayer" style="swimlane;fontStyle=1;align=center;verticalAlign=top;childLayout=stackLayout;horizontal=1;startSize=26;horizontalStack=0;resizeParent=1;resizeParentMax=0;resizeLast=0;collapsible=1;marginBottom=0;" parent="1" vertex="1">
          <mxGeometry x="1927.5" y="-830" width="190" height="100" as="geometry" />
        </mxCell>
        <mxCell id="VLuqZ6IwxMBX5vIu2LNy-32" value="- backgroundPixmap : Pixmap" style="text;strokeColor=none;fillColor=none;align=left;verticalAlign=top;spacingLeft=4;spacingRight=4;overflow=hidden;rotatable=0;points=[[0,0.5],[1,0.5]];portConstraint=eastwest;" parent="VLuqZ6IwxMBX5vIu2LNy-31" vertex="1">
          <mxGeometry y="26" width="190" height="34" as="geometry" />
        </mxCell>
        <mxCell id="VLuqZ6IwxMBX5vIu2LNy-33" value="" style="line;strokeWidth=1;fillColor=none;align=left;verticalAlign=middle;spacingTop=-1;spacingLeft=3;spacingRight=3;rotatable=0;labelPosition=right;points=[];portConstraint=eastwest;" parent="VLuqZ6IwxMBX5vIu2LNy-31" vertex="1">
          <mxGeometry y="60" width="190" height="8" as="geometry" />
        </mxCell>
        <mxCell id="VLuqZ6IwxMBX5vIu2LNy-34" value="  " style="text;strokeColor=none;fillColor=none;align=left;verticalAlign=top;spacingLeft=4;spacingRight=4;overflow=hidden;rotatable=0;points=[[0,0.5],[1,0.5]];portConstraint=eastwest;" parent="VLuqZ6IwxMBX5vIu2LNy-31" vertex="1">
          <mxGeometry y="68" width="190" height="32" as="geometry" />
        </mxCell>
        <mxCell id="5MO2-bn_FhInQiJJIIUL-8" style="edgeStyle=orthogonalEdgeStyle;rounded=0;orthogonalLoop=1;jettySize=auto;html=1;endArrow=diamondThin;endFill=1;endSize=14;" parent="1" edge="1">
          <mxGeometry relative="1" as="geometry">
            <Array as="points">
              <mxPoint x="1370" y="-244" />
              <mxPoint x="1370" y="-134" />
            </Array>
            <mxPoint x="1400" y="-244.00000000000023" as="sourcePoint" />
            <mxPoint x="1210" y="-134.00000000000023" as="targetPoint" />
          </mxGeometry>
        </mxCell>
        <mxCell id="Ci6YaJO2AyVJbJyurlzy-1" value="PlayerInput" style="swimlane;fontStyle=1;align=center;verticalAlign=top;childLayout=stackLayout;horizontal=1;startSize=26;horizontalStack=0;resizeParent=1;resizeParentMax=0;resizeLast=0;collapsible=1;marginBottom=0;" parent="1" vertex="1">
          <mxGeometry x="1400" y="-250" width="250" height="120" as="geometry" />
        </mxCell>
        <mxCell id="Ci6YaJO2AyVJbJyurlzy-2" value="- playerStatus : PlayerStatus&#xa;- pauseController : PauseController" style="text;strokeColor=none;fillColor=none;align=left;verticalAlign=top;spacingLeft=4;spacingRight=4;overflow=hidden;rotatable=0;points=[[0,0.5],[1,0.5]];portConstraint=eastwest;" parent="Ci6YaJO2AyVJbJyurlzy-1" vertex="1">
          <mxGeometry y="26" width="250" height="44" as="geometry" />
        </mxCell>
        <mxCell id="Ci6YaJO2AyVJbJyurlzy-3" value="" style="line;strokeWidth=1;fillColor=none;align=left;verticalAlign=middle;spacingTop=-1;spacingLeft=3;spacingRight=3;rotatable=0;labelPosition=right;points=[];portConstraint=eastwest;" parent="Ci6YaJO2AyVJbJyurlzy-1" vertex="1">
          <mxGeometry y="70" width="250" height="8" as="geometry" />
        </mxCell>
        <mxCell id="Ci6YaJO2AyVJbJyurlzy-4" value="+ getPlayerStatus() : PlayerStatus&#xa;" style="text;strokeColor=none;fillColor=none;align=left;verticalAlign=top;spacingLeft=4;spacingRight=4;overflow=hidden;rotatable=0;points=[[0,0.5],[1,0.5]];portConstraint=eastwest;" parent="Ci6YaJO2AyVJbJyurlzy-1" vertex="1">
          <mxGeometry y="78" width="250" height="42" as="geometry" />
        </mxCell>
        <mxCell id="G27WGiiaCzAnjPOhc22A-1" value="MenuParser" style="swimlane;fontStyle=1;align=center;verticalAlign=top;childLayout=stackLayout;horizontal=1;startSize=26;horizontalStack=0;resizeParent=1;resizeParentMax=0;resizeLast=0;collapsible=1;marginBottom=0;" parent="1" vertex="1">
          <mxGeometry x="810" y="1200" width="190" height="120" as="geometry" />
        </mxCell>
        <mxCell id="G27WGiiaCzAnjPOhc22A-2" value="- widgetFactory : WidgetFactory&#xa;- menuConfigFilepath : Filepath&#xa;- settingsFilepath : Filepath" style="text;strokeColor=none;fillColor=none;align=left;verticalAlign=top;spacingLeft=4;spacingRight=4;overflow=hidden;rotatable=0;points=[[0,0.5],[1,0.5]];portConstraint=eastwest;" parent="G27WGiiaCzAnjPOhc22A-1" vertex="1">
          <mxGeometry y="26" width="190" height="54" as="geometry" />
        </mxCell>
        <mxCell id="G27WGiiaCzAnjPOhc22A-3" value="" style="line;strokeWidth=1;fillColor=none;align=left;verticalAlign=middle;spacingTop=-1;spacingLeft=3;spacingRight=3;rotatable=0;labelPosition=right;points=[];portConstraint=eastwest;" parent="G27WGiiaCzAnjPOhc22A-1" vertex="1">
          <mxGeometry y="80" width="190" height="8" as="geometry" />
        </mxCell>
        <mxCell id="G27WGiiaCzAnjPOhc22A-4" value="+ parse(FileLoader) : Menus" style="text;strokeColor=none;fillColor=none;align=left;verticalAlign=top;spacingLeft=4;spacingRight=4;overflow=hidden;rotatable=0;points=[[0,0.5],[1,0.5]];portConstraint=eastwest;" parent="G27WGiiaCzAnjPOhc22A-1" vertex="1">
          <mxGeometry y="88" width="190" height="32" as="geometry" />
        </mxCell>
        <mxCell id="G27WGiiaCzAnjPOhc22A-5" style="edgeStyle=orthogonalEdgeStyle;rounded=0;orthogonalLoop=1;jettySize=auto;html=1;endArrow=openThin;endFill=0;endSize=14;" parent="1" source="G27WGiiaCzAnjPOhc22A-1" target="UTBrPVDNq_zUBes7hR2i-15" edge="1">
          <mxGeometry relative="1" as="geometry">
            <Array as="points">
              <mxPoint x="900" y="1150" />
              <mxPoint x="900" y="1150" />
            </Array>
            <mxPoint x="605" y="1155" as="sourcePoint" />
            <mxPoint x="605" y="1090" as="targetPoint" />
          </mxGeometry>
        </mxCell>
        <mxCell id="G27WGiiaCzAnjPOhc22A-6" value="create" style="edgeLabel;html=1;align=center;verticalAlign=middle;resizable=0;points=[];" parent="G27WGiiaCzAnjPOhc22A-5" vertex="1" connectable="0">
          <mxGeometry x="-0.2106" y="-1" relative="1" as="geometry">
            <mxPoint x="-21" y="-7" as="offset" />
          </mxGeometry>
        </mxCell>
        <mxCell id="G27WGiiaCzAnjPOhc22A-7" style="edgeStyle=orthogonalEdgeStyle;rounded=0;orthogonalLoop=1;jettySize=auto;html=1;endArrow=openThin;endFill=0;endSize=14;" parent="1" source="UTBrPVDNq_zUBes7hR2i-10" target="G27WGiiaCzAnjPOhc22A-1" edge="1">
          <mxGeometry relative="1" as="geometry">
            <Array as="points">
              <mxPoint x="670" y="1220" />
            </Array>
            <mxPoint x="490" y="940" as="sourcePoint" />
            <mxPoint x="400" y="970" as="targetPoint" />
          </mxGeometry>
        </mxCell>
        <mxCell id="G27WGiiaCzAnjPOhc22A-8" value="use" style="edgeLabel;html=1;align=center;verticalAlign=middle;resizable=0;points=[];" parent="G27WGiiaCzAnjPOhc22A-7" vertex="1" connectable="0">
          <mxGeometry x="-0.2106" y="-1" relative="1" as="geometry">
            <mxPoint x="21" y="-84" as="offset" />
          </mxGeometry>
        </mxCell>
        <mxCell id="G27WGiiaCzAnjPOhc22A-9" value="GameSession" style="swimlane;fontStyle=1;align=center;verticalAlign=top;childLayout=stackLayout;horizontal=1;startSize=26;horizontalStack=0;resizeParent=1;resizeParentMax=0;resizeLast=0;collapsible=1;marginBottom=0;" parent="1" vertex="1">
          <mxGeometry x="1241" y="400" width="280" height="200" as="geometry" />
        </mxCell>
        <mxCell id="G27WGiiaCzAnjPOhc22A-10" value="- map : GameMap&#xa;- spawners : Spawners&#xa;- manager : GameplayManager" style="text;strokeColor=none;fillColor=none;align=left;verticalAlign=top;spacingLeft=4;spacingRight=4;overflow=hidden;rotatable=0;points=[[0,0.5],[1,0.5]];portConstraint=eastwest;fontStyle=0" parent="G27WGiiaCzAnjPOhc22A-9" vertex="1">
          <mxGeometry y="26" width="280" height="64" as="geometry" />
        </mxCell>
        <mxCell id="G27WGiiaCzAnjPOhc22A-11" value="" style="line;strokeWidth=1;fillColor=none;align=left;verticalAlign=middle;spacingTop=-1;spacingLeft=3;spacingRight=3;rotatable=0;labelPosition=right;points=[];portConstraint=eastwest;" parent="G27WGiiaCzAnjPOhc22A-9" vertex="1">
          <mxGeometry y="90" width="280" height="8" as="geometry" />
        </mxCell>
        <mxCell id="G27WGiiaCzAnjPOhc22A-12" value="+ start() : void&#xa;+ stop() : void&#xa;+ addPlayer(PlayerID) : void&#xa;+ removePlayer(PlayerID) : void&#xa;+ updatePlayer(PlayerUpdate) : void&#xa;+ getCurrentPlayerStatus(PlayerID) : PlayerStatus" style="text;strokeColor=none;fillColor=none;align=left;verticalAlign=top;spacingLeft=4;spacingRight=4;overflow=hidden;rotatable=0;points=[[0,0.5],[1,0.5]];portConstraint=eastwest;" parent="G27WGiiaCzAnjPOhc22A-9" vertex="1">
          <mxGeometry y="98" width="280" height="102" as="geometry" />
        </mxCell>
        <mxCell id="G27WGiiaCzAnjPOhc22A-13" value="Client" style="swimlane;fontStyle=3;align=center;verticalAlign=top;childLayout=stackLayout;horizontal=1;startSize=26;horizontalStack=0;resizeParent=1;resizeParentMax=0;resizeLast=0;collapsible=1;marginBottom=0;" parent="1" vertex="1">
          <mxGeometry x="820" y="-540" width="230" height="220" as="geometry" />
        </mxCell>
        <mxCell id="G27WGiiaCzAnjPOhc22A-14" value="- connectedServer : Server&#xa;- currentSettings : SettingsRef&#xa;- playerName : String&#xa;" style="text;strokeColor=none;fillColor=none;align=left;verticalAlign=top;spacingLeft=4;spacingRight=4;overflow=hidden;rotatable=0;points=[[0,0.5],[1,0.5]];portConstraint=eastwest;" parent="G27WGiiaCzAnjPOhc22A-13" vertex="1">
          <mxGeometry y="26" width="230" height="64" as="geometry" />
        </mxCell>
        <mxCell id="G27WGiiaCzAnjPOhc22A-15" value="" style="line;strokeWidth=1;fillColor=none;align=left;verticalAlign=middle;spacingTop=-1;spacingLeft=3;spacingRight=3;rotatable=0;labelPosition=right;points=[];portConstraint=eastwest;" parent="G27WGiiaCzAnjPOhc22A-13" vertex="1">
          <mxGeometry y="90" width="230" height="8" as="geometry" />
        </mxCell>
        <mxCell id="G27WGiiaCzAnjPOhc22A-16" value="+ connect(Server) : void&#xa;+ disconnect() : void&#xa;+ pause() : void&#xa;+ resume() : void&#xa;+ update(Frame) : void&#xa;+ status() : ClientStatus&#xa;+ setPlayerName(String) : void" style="text;strokeColor=none;fillColor=none;align=left;verticalAlign=top;spacingLeft=4;spacingRight=4;overflow=hidden;rotatable=0;points=[[0,0.5],[1,0.5]];portConstraint=eastwest;fontStyle=2" parent="G27WGiiaCzAnjPOhc22A-13" vertex="1">
          <mxGeometry y="98" width="230" height="122" as="geometry" />
        </mxCell>
        <mxCell id="in2eyDOJDBMRCDKq5YES-1" value="" style="endArrow=none;html=1;rounded=0;edgeStyle=orthogonalEdgeStyle;startArrow=block;startFill=0;startSize=14;endSize=14;" parent="1" source="G27WGiiaCzAnjPOhc22A-13" target="UTBrPVDNq_zUBes7hR2i-5" edge="1">
          <mxGeometry width="50" height="50" relative="1" as="geometry">
            <mxPoint x="1000" y="-345" as="sourcePoint" />
            <mxPoint x="890" y="-150" as="targetPoint" />
            <Array as="points">
              <mxPoint x="980" y="-270" />
              <mxPoint x="1090" y="-270" />
            </Array>
          </mxGeometry>
        </mxCell>
        <mxCell id="in2eyDOJDBMRCDKq5YES-2" style="edgeStyle=orthogonalEdgeStyle;rounded=0;orthogonalLoop=1;jettySize=auto;html=1;endArrow=diamondThin;endFill=1;endSize=14;" parent="1" source="G27WGiiaCzAnjPOhc22A-9" target="UTBrPVDNq_zUBes7hR2i-21" edge="1">
          <mxGeometry relative="1" as="geometry">
            <Array as="points">
              <mxPoint x="1200" y="410" />
              <mxPoint x="1200" y="320" />
            </Array>
            <mxPoint x="1070" y="-69.95999999999981" as="sourcePoint" />
            <mxPoint x="910" y="-177" as="targetPoint" />
          </mxGeometry>
        </mxCell>
        <mxCell id="in2eyDOJDBMRCDKq5YES-4" value="Server" style="swimlane;fontStyle=3;align=center;verticalAlign=top;childLayout=stackLayout;horizontal=1;startSize=26;horizontalStack=0;resizeParent=1;resizeParentMax=0;resizeLast=0;collapsible=1;marginBottom=0;" parent="1" vertex="1">
          <mxGeometry x="850" y="60" width="170" height="120" as="geometry" />
        </mxCell>
        <mxCell id="in2eyDOJDBMRCDKq5YES-5" value=" " style="text;strokeColor=none;fillColor=none;align=left;verticalAlign=top;spacingLeft=4;spacingRight=4;overflow=hidden;rotatable=0;points=[[0,0.5],[1,0.5]];portConstraint=eastwest;" parent="in2eyDOJDBMRCDKq5YES-4" vertex="1">
          <mxGeometry y="26" width="170" height="20" as="geometry" />
        </mxCell>
        <mxCell id="in2eyDOJDBMRCDKq5YES-6" value="" style="line;strokeWidth=1;fillColor=none;align=left;verticalAlign=middle;spacingTop=-1;spacingLeft=3;spacingRight=3;rotatable=0;labelPosition=right;points=[];portConstraint=eastwest;" parent="in2eyDOJDBMRCDKq5YES-4" vertex="1">
          <mxGeometry y="46" width="170" height="8" as="geometry" />
        </mxCell>
        <mxCell id="in2eyDOJDBMRCDKq5YES-7" value="+ subscribe(Client) : void&#xa;+ unsubscribe(Client) : void&#xa;+ run() : void" style="text;strokeColor=none;fillColor=none;align=left;verticalAlign=top;spacingLeft=4;spacingRight=4;overflow=hidden;rotatable=0;points=[[0,0.5],[1,0.5]];portConstraint=eastwest;fontStyle=2" parent="in2eyDOJDBMRCDKq5YES-4" vertex="1">
          <mxGeometry y="54" width="170" height="66" as="geometry" />
        </mxCell>
        <mxCell id="in2eyDOJDBMRCDKq5YES-8" value="" style="endArrow=none;html=1;rounded=0;edgeStyle=orthogonalEdgeStyle;startArrow=block;startFill=0;startSize=14;endSize=14;" parent="1" source="in2eyDOJDBMRCDKq5YES-4" target="UTBrPVDNq_zUBes7hR2i-21" edge="1">
          <mxGeometry width="50" height="50" relative="1" as="geometry">
            <mxPoint x="560.00347826087" y="400.9999999999998" as="sourcePoint" />
            <mxPoint x="640.00347826087" y="481.0000000000002" as="targetPoint" />
            <Array as="points">
              <mxPoint x="960" y="230" />
              <mxPoint x="1050" y="230" />
            </Array>
          </mxGeometry>
        </mxCell>
        <mxCell id="in2eyDOJDBMRCDKq5YES-13" style="edgeStyle=orthogonalEdgeStyle;rounded=0;orthogonalLoop=1;jettySize=auto;html=1;endArrow=diamondThin;endFill=1;endSize=14;startArrow=none;" parent="1" edge="1">
          <mxGeometry relative="1" as="geometry">
            <Array as="points">
              <mxPoint x="1680" y="-215.02" />
              <mxPoint x="1680" y="-215.02" />
            </Array>
            <mxPoint x="1717.5" y="-215.00245614035092" as="sourcePoint" />
            <mxPoint x="1649.9999999999998" y="-215.00245614035092" as="targetPoint" />
          </mxGeometry>
        </mxCell>
        <mxCell id="01DIVxnE-MozRlHaw3RA-1" value="GameMap" style="swimlane;fontStyle=1;align=center;verticalAlign=top;childLayout=stackLayout;horizontal=1;startSize=26;horizontalStack=0;resizeParent=1;resizeParentMax=0;resizeLast=0;collapsible=1;marginBottom=0;" parent="1" vertex="1">
          <mxGeometry x="1608.5" y="30" width="280" height="180" as="geometry" />
        </mxCell>
        <mxCell id="01DIVxnE-MozRlHaw3RA-2" value="- id : BackgroundID&#xa;- colider : Pixmap&#xa;- spawnersPoints : Points&#xa;- npcMovePathsPoints : Points&#xa;- vehicleMovePathsPoints : Points" style="text;strokeColor=none;fillColor=none;align=left;verticalAlign=top;spacingLeft=4;spacingRight=4;overflow=hidden;rotatable=0;points=[[0,0.5],[1,0.5]];portConstraint=eastwest;" parent="01DIVxnE-MozRlHaw3RA-1" vertex="1">
          <mxGeometry y="26" width="280" height="84" as="geometry" />
        </mxCell>
        <mxCell id="01DIVxnE-MozRlHaw3RA-3" value="" style="line;strokeWidth=1;fillColor=none;align=left;verticalAlign=middle;spacingTop=-1;spacingLeft=3;spacingRight=3;rotatable=0;labelPosition=right;points=[];portConstraint=eastwest;" parent="01DIVxnE-MozRlHaw3RA-1" vertex="1">
          <mxGeometry y="110" width="280" height="8" as="geometry" />
        </mxCell>
        <mxCell id="01DIVxnE-MozRlHaw3RA-4" value="+ getColider() : Pixmap&#xa;+ getSpawnersPoints() : Points&#xa;+ getMovePoint(PointID) : MovePoint" style="text;strokeColor=none;fillColor=none;align=left;verticalAlign=top;spacingLeft=4;spacingRight=4;overflow=hidden;rotatable=0;points=[[0,0.5],[1,0.5]];portConstraint=eastwest;" parent="01DIVxnE-MozRlHaw3RA-1" vertex="1">
          <mxGeometry y="118" width="280" height="62" as="geometry" />
        </mxCell>
        <mxCell id="01DIVxnE-MozRlHaw3RA-5" style="edgeStyle=orthogonalEdgeStyle;rounded=0;orthogonalLoop=1;jettySize=auto;html=1;endArrow=diamondThin;endFill=1;endSize=14;" parent="1" source="01DIVxnE-MozRlHaw3RA-1" target="G27WGiiaCzAnjPOhc22A-10" edge="1">
          <mxGeometry relative="1" as="geometry">
            <Array as="points">
              <mxPoint x="1550" y="40" />
              <mxPoint x="1550" y="440" />
            </Array>
            <mxPoint x="1240" y="280" as="sourcePoint" />
            <mxPoint x="1510" y="295" as="targetPoint" />
          </mxGeometry>
        </mxCell>
        <mxCell id="01DIVxnE-MozRlHaw3RA-6" value="Spawner" style="swimlane;fontStyle=1;align=center;verticalAlign=top;childLayout=stackLayout;horizontal=1;startSize=26;horizontalStack=0;resizeParent=1;resizeParentMax=0;resizeLast=0;collapsible=1;marginBottom=0;" parent="1" vertex="1">
          <mxGeometry x="1608.5" y="340" width="280" height="170" as="geometry" />
        </mxCell>
        <mxCell id="01DIVxnE-MozRlHaw3RA-7" value="- target : SpawnTarget&#xa;- type : EntityType&#xa;- spawnTimer : Timer&#xa;- spawnPoint : Point" style="text;strokeColor=none;fillColor=none;align=left;verticalAlign=top;spacingLeft=4;spacingRight=4;overflow=hidden;rotatable=0;points=[[0,0.5],[1,0.5]];portConstraint=eastwest;" parent="01DIVxnE-MozRlHaw3RA-6" vertex="1">
          <mxGeometry y="26" width="280" height="74" as="geometry" />
        </mxCell>
        <mxCell id="01DIVxnE-MozRlHaw3RA-8" value="" style="line;strokeWidth=1;fillColor=none;align=left;verticalAlign=middle;spacingTop=-1;spacingLeft=3;spacingRight=3;rotatable=0;labelPosition=right;points=[];portConstraint=eastwest;" parent="01DIVxnE-MozRlHaw3RA-6" vertex="1">
          <mxGeometry y="100" width="280" height="8" as="geometry" />
        </mxCell>
        <mxCell id="01DIVxnE-MozRlHaw3RA-9" value="+ start() : void&#xa;+ stop() : void&#xa;+ spawn() : void" style="text;strokeColor=none;fillColor=none;align=left;verticalAlign=top;spacingLeft=4;spacingRight=4;overflow=hidden;rotatable=0;points=[[0,0.5],[1,0.5]];portConstraint=eastwest;" parent="01DIVxnE-MozRlHaw3RA-6" vertex="1">
          <mxGeometry y="108" width="280" height="62" as="geometry" />
        </mxCell>
        <mxCell id="01DIVxnE-MozRlHaw3RA-12" style="edgeStyle=orthogonalEdgeStyle;rounded=0;orthogonalLoop=1;jettySize=auto;html=1;endArrow=diamondThin;endFill=1;endSize=14;" parent="1" edge="1">
          <mxGeometry relative="1" as="geometry">
            <Array as="points">
              <mxPoint x="1568" y="349" />
              <mxPoint x="1568" y="457" />
            </Array>
            <mxPoint x="1609" y="348.9999999999998" as="sourcePoint" />
            <mxPoint x="1521" y="457" as="targetPoint" />
          </mxGeometry>
        </mxCell>
        <mxCell id="01DIVxnE-MozRlHaw3RA-13" value="GameplayManager" style="swimlane;fontStyle=1;align=center;verticalAlign=top;childLayout=stackLayout;horizontal=1;startSize=26;horizontalStack=0;resizeParent=1;resizeParentMax=0;resizeLast=0;collapsible=1;marginBottom=0;" parent="1" vertex="1">
          <mxGeometry x="1607.5" y="780" width="320" height="190" as="geometry" />
        </mxCell>
        <mxCell id="01DIVxnE-MozRlHaw3RA-14" value="- entities : Entities&#xa;- viewAreaSystem : ViewAreaSystem&#xa;- physicsSystem : PhysicsSystem" style="text;strokeColor=none;fillColor=none;align=left;verticalAlign=top;spacingLeft=4;spacingRight=4;overflow=hidden;rotatable=0;points=[[0,0.5],[1,0.5]];portConstraint=eastwest;" parent="01DIVxnE-MozRlHaw3RA-13" vertex="1">
          <mxGeometry y="26" width="320" height="64" as="geometry" />
        </mxCell>
        <mxCell id="01DIVxnE-MozRlHaw3RA-15" value="" style="line;strokeWidth=1;fillColor=none;align=left;verticalAlign=middle;spacingTop=-1;spacingLeft=3;spacingRight=3;rotatable=0;labelPosition=right;points=[];portConstraint=eastwest;" parent="01DIVxnE-MozRlHaw3RA-13" vertex="1">
          <mxGeometry y="90" width="320" height="8" as="geometry" />
        </mxCell>
        <mxCell id="01DIVxnE-MozRlHaw3RA-16" value="+ start() : void&#xa;+ stop() : void&#xa;+ removeEntity(EntityID) : void&#xa;+ updatePlayerEntity(EntityID, PlayerEntityUpdate) : void&#xa;+ getPlayerEntityStatus(EntityID) : PlayerEntityStatus" style="text;strokeColor=none;fillColor=none;align=left;verticalAlign=top;spacingLeft=4;spacingRight=4;overflow=hidden;rotatable=0;points=[[0,0.5],[1,0.5]];portConstraint=eastwest;" parent="01DIVxnE-MozRlHaw3RA-13" vertex="1">
          <mxGeometry y="98" width="320" height="92" as="geometry" />
        </mxCell>
        <mxCell id="01DIVxnE-MozRlHaw3RA-18" value="SpawnTarget" style="swimlane;fontStyle=3;align=center;verticalAlign=top;childLayout=stackLayout;horizontal=1;startSize=26;horizontalStack=0;resizeParent=1;resizeParentMax=0;resizeLast=0;collapsible=1;marginBottom=0;" parent="1" vertex="1">
          <mxGeometry x="1684.38" y="620" width="166.25" height="90" as="geometry" />
        </mxCell>
        <mxCell id="01DIVxnE-MozRlHaw3RA-19" value=" " style="text;strokeColor=none;fillColor=none;align=left;verticalAlign=top;spacingLeft=4;spacingRight=4;overflow=hidden;rotatable=0;points=[[0,0.5],[1,0.5]];portConstraint=eastwest;" parent="01DIVxnE-MozRlHaw3RA-18" vertex="1">
          <mxGeometry y="26" width="166.25" height="14" as="geometry" />
        </mxCell>
        <mxCell id="01DIVxnE-MozRlHaw3RA-20" value="" style="line;strokeWidth=1;fillColor=none;align=left;verticalAlign=middle;spacingTop=-1;spacingLeft=3;spacingRight=3;rotatable=0;labelPosition=right;points=[];portConstraint=eastwest;" parent="01DIVxnE-MozRlHaw3RA-18" vertex="1">
          <mxGeometry y="40" width="166.25" height="8" as="geometry" />
        </mxCell>
        <mxCell id="01DIVxnE-MozRlHaw3RA-21" value="+ addEntity(EntityType) : void" style="text;strokeColor=none;fillColor=none;align=left;verticalAlign=top;spacingLeft=4;spacingRight=4;overflow=hidden;rotatable=0;points=[[0,0.5],[1,0.5]];portConstraint=eastwest;fontStyle=2" parent="01DIVxnE-MozRlHaw3RA-18" vertex="1">
          <mxGeometry y="48" width="166.25" height="42" as="geometry" />
        </mxCell>
        <mxCell id="01DIVxnE-MozRlHaw3RA-22" style="edgeStyle=orthogonalEdgeStyle;rounded=0;orthogonalLoop=1;jettySize=auto;html=1;endSize=14;endArrow=block;endFill=0;" parent="1" source="01DIVxnE-MozRlHaw3RA-13" target="01DIVxnE-MozRlHaw3RA-18" edge="1">
          <mxGeometry relative="1" as="geometry">
            <mxPoint x="1438.5" y="550" as="sourcePoint" />
            <mxPoint x="1437.6" y="500" as="targetPoint" />
            <Array as="points" />
          </mxGeometry>
        </mxCell>
        <mxCell id="01DIVxnE-MozRlHaw3RA-23" style="edgeStyle=orthogonalEdgeStyle;rounded=0;orthogonalLoop=1;jettySize=auto;html=1;endArrow=diamondThin;endFill=1;endSize=14;" parent="1" edge="1">
          <mxGeometry relative="1" as="geometry">
            <Array as="points">
              <mxPoint x="1548" y="784" />
              <mxPoint x="1548" y="474" />
            </Array>
            <mxPoint x="1607.5" y="784" as="sourcePoint" />
            <mxPoint x="1521" y="474" as="targetPoint" />
          </mxGeometry>
        </mxCell>
        <mxCell id="01DIVxnE-MozRlHaw3RA-25" style="edgeStyle=orthogonalEdgeStyle;rounded=0;orthogonalLoop=1;jettySize=auto;html=1;endArrow=openThin;endFill=0;endSize=14;" parent="1" source="01DIVxnE-MozRlHaw3RA-6" target="01DIVxnE-MozRlHaw3RA-18" edge="1">
          <mxGeometry relative="1" as="geometry">
            <Array as="points">
              <mxPoint x="1767.5" y="590" />
              <mxPoint x="1767.5" y="590" />
            </Array>
            <mxPoint x="107.5" y="-110" as="sourcePoint" />
            <mxPoint x="1737.5" y="650.5263157894736" as="targetPoint" />
          </mxGeometry>
        </mxCell>
        <mxCell id="01DIVxnE-MozRlHaw3RA-26" value="use" style="edgeLabel;html=1;align=center;verticalAlign=middle;resizable=0;points=[];" parent="01DIVxnE-MozRlHaw3RA-25" vertex="1" connectable="0">
          <mxGeometry x="-0.2106" y="-1" relative="1" as="geometry">
            <mxPoint x="-12" y="9" as="offset" />
          </mxGeometry>
        </mxCell>
        <mxCell id="01DIVxnE-MozRlHaw3RA-38" style="edgeStyle=orthogonalEdgeStyle;rounded=0;orthogonalLoop=1;jettySize=auto;html=1;endArrow=diamondThin;endFill=1;endSize=14;fontStyle=0" parent="1" source="8jqdYVEP_97D0Pi5SaY6-1" target="01DIVxnE-MozRlHaw3RA-14" edge="1">
          <mxGeometry relative="1" as="geometry">
            <Array as="points">
              <mxPoint x="1977.5" y="830" />
              <mxPoint x="1977.5" y="830" />
            </Array>
            <mxPoint x="2017.5" y="942.0000000000005" as="sourcePoint" />
            <mxPoint x="1927.5" y="832.0000000000005" as="targetPoint" />
          </mxGeometry>
        </mxCell>
        <mxCell id="8jqdYVEP_97D0Pi5SaY6-1" value="ViewAreaSystem" style="swimlane;fontStyle=1;align=center;verticalAlign=top;childLayout=stackLayout;horizontal=1;startSize=26;horizontalStack=0;resizeParent=1;resizeParentMax=0;resizeLast=0;collapsible=1;marginBottom=0;" parent="1" vertex="1">
          <mxGeometry x="2067.5" y="770" width="220" height="120" as="geometry" />
        </mxCell>
        <mxCell id="8jqdYVEP_97D0Pi5SaY6-2" value="- components : ECS_ComponentsMap " style="text;strokeColor=none;fillColor=none;align=left;verticalAlign=top;spacingLeft=4;spacingRight=4;overflow=hidden;rotatable=0;points=[[0,0.5],[1,0.5]];portConstraint=eastwest;" parent="8jqdYVEP_97D0Pi5SaY6-1" vertex="1">
          <mxGeometry y="26" width="220" height="24" as="geometry" />
        </mxCell>
        <mxCell id="8jqdYVEP_97D0Pi5SaY6-3" value="" style="line;strokeWidth=1;fillColor=none;align=left;verticalAlign=middle;spacingTop=-1;spacingLeft=3;spacingRight=3;rotatable=0;labelPosition=right;points=[];portConstraint=eastwest;" parent="8jqdYVEP_97D0Pi5SaY6-1" vertex="1">
          <mxGeometry y="50" width="220" height="8" as="geometry" />
        </mxCell>
        <mxCell id="8jqdYVEP_97D0Pi5SaY6-4" value="+ update(EntityID, ViewRange) : void&#xa;+ update(EntityID, Position) : void&#xa;+ get(EntityID) : ViewArea" style="text;strokeColor=none;fillColor=none;align=left;verticalAlign=top;spacingLeft=4;spacingRight=4;overflow=hidden;rotatable=0;points=[[0,0.5],[1,0.5]];portConstraint=eastwest;" parent="8jqdYVEP_97D0Pi5SaY6-1" vertex="1">
          <mxGeometry y="58" width="220" height="62" as="geometry" />
        </mxCell>
        <mxCell id="8jqdYVEP_97D0Pi5SaY6-5" value="PhysicsSystem" style="swimlane;fontStyle=1;align=center;verticalAlign=top;childLayout=stackLayout;horizontal=1;startSize=26;horizontalStack=0;resizeParent=1;resizeParentMax=0;resizeLast=0;collapsible=1;marginBottom=0;" parent="1" vertex="1">
          <mxGeometry x="2067.5" y="970" width="260" height="110" as="geometry" />
        </mxCell>
        <mxCell id="8jqdYVEP_97D0Pi5SaY6-6" value="- viewAreaSystem : ECS_ViewAreaSystemRef" style="text;strokeColor=none;fillColor=none;align=left;verticalAlign=top;spacingLeft=4;spacingRight=4;overflow=hidden;rotatable=0;points=[[0,0.5],[1,0.5]];portConstraint=eastwest;fontStyle=0" parent="8jqdYVEP_97D0Pi5SaY6-5" vertex="1">
          <mxGeometry y="26" width="260" height="34" as="geometry" />
        </mxCell>
        <mxCell id="8jqdYVEP_97D0Pi5SaY6-7" value="" style="line;strokeWidth=1;fillColor=none;align=left;verticalAlign=middle;spacingTop=-1;spacingLeft=3;spacingRight=3;rotatable=0;labelPosition=right;points=[];portConstraint=eastwest;" parent="8jqdYVEP_97D0Pi5SaY6-5" vertex="1">
          <mxGeometry y="60" width="260" height="8" as="geometry" />
        </mxCell>
        <mxCell id="8jqdYVEP_97D0Pi5SaY6-8" value="+ update(EntityID, PhysicsElements) : void " style="text;strokeColor=none;fillColor=none;align=left;verticalAlign=top;spacingLeft=4;spacingRight=4;overflow=hidden;rotatable=0;points=[[0,0.5],[1,0.5]];portConstraint=eastwest;" parent="8jqdYVEP_97D0Pi5SaY6-5" vertex="1">
          <mxGeometry y="68" width="260" height="42" as="geometry" />
        </mxCell>
        <mxCell id="8jqdYVEP_97D0Pi5SaY6-9" style="edgeStyle=orthogonalEdgeStyle;rounded=0;orthogonalLoop=1;jettySize=auto;html=1;endSize=14;endArrow=block;endFill=0;exitX=0.5;exitY=0;exitDx=0;exitDy=0;" parent="1" source="8jqdYVEP_97D0Pi5SaY6-1" target="8jqdYVEP_97D0Pi5SaY6-19" edge="1">
          <mxGeometry relative="1" as="geometry">
            <mxPoint x="1827.5" y="790" as="sourcePoint" />
            <mxPoint x="2267.5" y="676" as="targetPoint" />
            <Array as="points">
              <mxPoint x="2177.5" y="720" />
              <mxPoint x="2267.5" y="720" />
            </Array>
          </mxGeometry>
        </mxCell>
        <mxCell id="8jqdYVEP_97D0Pi5SaY6-11" style="edgeStyle=orthogonalEdgeStyle;rounded=0;orthogonalLoop=1;jettySize=auto;html=1;endSize=14;endArrow=block;endFill=0;" parent="1" source="8jqdYVEP_97D0Pi5SaY6-5" target="8jqdYVEP_97D0Pi5SaY6-19" edge="1">
          <mxGeometry relative="1" as="geometry">
            <mxPoint x="2017.5" y="1180" as="sourcePoint" />
            <mxPoint x="2327.5" y="676" as="targetPoint" />
            <Array as="points">
              <mxPoint x="2197" y="930" />
              <mxPoint x="2327" y="930" />
            </Array>
          </mxGeometry>
        </mxCell>
        <mxCell id="8jqdYVEP_97D0Pi5SaY6-12" style="edgeStyle=orthogonalEdgeStyle;rounded=0;orthogonalLoop=1;jettySize=auto;html=1;endArrow=openThin;endFill=0;endSize=14;" parent="1" source="01DIVxnE-MozRlHaw3RA-13" target="8jqdYVEP_97D0Pi5SaY6-1" edge="1">
          <mxGeometry relative="1" as="geometry">
            <Array as="points">
              <mxPoint x="1977.5" y="810" />
              <mxPoint x="1977.5" y="810" />
            </Array>
            <mxPoint x="1578.5" y="570" as="sourcePoint" />
            <mxPoint x="1657.5" y="570" as="targetPoint" />
          </mxGeometry>
        </mxCell>
        <mxCell id="8jqdYVEP_97D0Pi5SaY6-13" value="update" style="edgeLabel;html=1;align=center;verticalAlign=middle;resizable=0;points=[];" parent="8jqdYVEP_97D0Pi5SaY6-12" vertex="1" connectable="0">
          <mxGeometry x="-0.2106" y="-1" relative="1" as="geometry">
            <mxPoint x="4" y="-15" as="offset" />
          </mxGeometry>
        </mxCell>
        <mxCell id="8jqdYVEP_97D0Pi5SaY6-14" style="edgeStyle=orthogonalEdgeStyle;rounded=0;orthogonalLoop=1;jettySize=auto;html=1;endArrow=openThin;endFill=0;endSize=14;" parent="1" source="01DIVxnE-MozRlHaw3RA-13" target="8jqdYVEP_97D0Pi5SaY6-5" edge="1">
          <mxGeometry relative="1" as="geometry">
            <Array as="points">
              <mxPoint x="2000" y="860" />
              <mxPoint x="2000" y="1025" />
            </Array>
            <mxPoint x="1777.5" y="930" as="sourcePoint" />
            <mxPoint x="1857.5" y="1260" as="targetPoint" />
          </mxGeometry>
        </mxCell>
        <mxCell id="8jqdYVEP_97D0Pi5SaY6-15" value="update" style="edgeLabel;html=1;align=center;verticalAlign=middle;resizable=0;points=[];" parent="8jqdYVEP_97D0Pi5SaY6-14" vertex="1" connectable="0">
          <mxGeometry x="-0.2106" y="-1" relative="1" as="geometry">
            <mxPoint x="-29" y="63" as="offset" />
          </mxGeometry>
        </mxCell>
        <mxCell id="8jqdYVEP_97D0Pi5SaY6-16" style="edgeStyle=orthogonalEdgeStyle;rounded=0;orthogonalLoop=1;jettySize=auto;html=1;endArrow=openThin;endFill=0;endSize=14;" parent="1" source="8jqdYVEP_97D0Pi5SaY6-5" target="8jqdYVEP_97D0Pi5SaY6-1" edge="1">
          <mxGeometry relative="1" as="geometry">
            <Array as="points">
              <mxPoint x="2127.5" y="960" />
              <mxPoint x="2127.5" y="960" />
            </Array>
            <mxPoint x="1827.5" y="930" as="sourcePoint" />
            <mxPoint x="1907.5" y="1260" as="targetPoint" />
          </mxGeometry>
        </mxCell>
        <mxCell id="8jqdYVEP_97D0Pi5SaY6-17" value="update" style="edgeLabel;html=1;align=center;verticalAlign=middle;resizable=0;points=[];" parent="8jqdYVEP_97D0Pi5SaY6-16" vertex="1" connectable="0">
          <mxGeometry x="-0.2106" y="-1" relative="1" as="geometry">
            <mxPoint x="-26" y="-12" as="offset" />
          </mxGeometry>
        </mxCell>
        <mxCell id="8jqdYVEP_97D0Pi5SaY6-18" style="edgeStyle=orthogonalEdgeStyle;rounded=0;orthogonalLoop=1;jettySize=auto;html=1;endArrow=diamondThin;endFill=1;endSize=14;fontStyle=0" parent="1" target="01DIVxnE-MozRlHaw3RA-14" edge="1">
          <mxGeometry relative="1" as="geometry">
            <Array as="points">
              <mxPoint x="2027.5" y="975" />
              <mxPoint x="2027.5" y="845" />
            </Array>
            <mxPoint x="2067.5" y="975" as="sourcePoint" />
            <mxPoint x="1927.5" y="845" as="targetPoint" />
          </mxGeometry>
        </mxCell>
        <mxCell id="8jqdYVEP_97D0Pi5SaY6-19" value="ECSSystem" style="swimlane;fontStyle=3;align=center;verticalAlign=top;childLayout=stackLayout;horizontal=1;startSize=26;horizontalStack=0;resizeParent=1;resizeParentMax=0;resizeLast=0;collapsible=1;marginBottom=0;" parent="1" vertex="1">
          <mxGeometry x="2207.5" y="570" width="220" height="110" as="geometry" />
        </mxCell>
        <mxCell id="8jqdYVEP_97D0Pi5SaY6-20" value=" " style="text;strokeColor=none;fillColor=none;align=left;verticalAlign=top;spacingLeft=4;spacingRight=4;overflow=hidden;rotatable=0;points=[[0,0.5],[1,0.5]];portConstraint=eastwest;" parent="8jqdYVEP_97D0Pi5SaY6-19" vertex="1">
          <mxGeometry y="26" width="220" height="24" as="geometry" />
        </mxCell>
        <mxCell id="8jqdYVEP_97D0Pi5SaY6-21" value="" style="line;strokeWidth=1;fillColor=none;align=left;verticalAlign=middle;spacingTop=-1;spacingLeft=3;spacingRight=3;rotatable=0;labelPosition=right;points=[];portConstraint=eastwest;" parent="8jqdYVEP_97D0Pi5SaY6-19" vertex="1">
          <mxGeometry y="50" width="220" height="8" as="geometry" />
        </mxCell>
        <mxCell id="8jqdYVEP_97D0Pi5SaY6-22" value="+ add(EntityID) : void&#xa;+ remove(EntitiyID) : void" style="text;strokeColor=none;fillColor=none;align=left;verticalAlign=top;spacingLeft=4;spacingRight=4;overflow=hidden;rotatable=0;points=[[0,0.5],[1,0.5]];portConstraint=eastwest;fontStyle=2" parent="8jqdYVEP_97D0Pi5SaY6-19" vertex="1">
          <mxGeometry y="58" width="220" height="52" as="geometry" />
        </mxCell>
        <mxCell id="in2eyDOJDBMRCDKq5YES-9" value="PlayerStatus" style="swimlane;fontStyle=1;align=center;verticalAlign=top;childLayout=stackLayout;horizontal=1;startSize=26;horizontalStack=0;resizeParent=1;resizeParentMax=0;resizeLast=0;collapsible=1;marginBottom=0;" parent="1" vertex="1">
          <mxGeometry x="1718" y="-224" width="200" height="120" as="geometry" />
        </mxCell>
        <mxCell id="in2eyDOJDBMRCDKq5YES-10" value="+ moveDirection : Direction&#xa;+ moveVelocity: Velocity&#xa;+ frontDirection : Direction&#xa;+ currentAction : Action" style="text;strokeColor=none;fillColor=none;align=left;verticalAlign=top;spacingLeft=4;spacingRight=4;overflow=hidden;rotatable=0;points=[[0,0.5],[1,0.5]];portConstraint=eastwest;" parent="in2eyDOJDBMRCDKq5YES-9" vertex="1">
          <mxGeometry y="26" width="200" height="74" as="geometry" />
        </mxCell>
        <mxCell id="in2eyDOJDBMRCDKq5YES-11" value="" style="line;strokeWidth=1;fillColor=none;align=left;verticalAlign=middle;spacingTop=-1;spacingLeft=3;spacingRight=3;rotatable=0;labelPosition=right;points=[];portConstraint=eastwest;" parent="in2eyDOJDBMRCDKq5YES-9" vertex="1">
          <mxGeometry y="100" width="200" height="8" as="geometry" />
        </mxCell>
        <mxCell id="in2eyDOJDBMRCDKq5YES-12" value=" " style="text;strokeColor=none;fillColor=none;align=left;verticalAlign=top;spacingLeft=4;spacingRight=4;overflow=hidden;rotatable=0;points=[[0,0.5],[1,0.5]];portConstraint=eastwest;" parent="in2eyDOJDBMRCDKq5YES-9" vertex="1">
          <mxGeometry y="108" width="200" height="12" as="geometry" />
        </mxCell>
        <mxCell id="8jqdYVEP_97D0Pi5SaY6-24" value="FileLoader" style="swimlane;fontStyle=1;align=center;verticalAlign=top;childLayout=stackLayout;horizontal=1;startSize=26;horizontalStack=0;resizeParent=1;resizeParentMax=0;resizeLast=0;collapsible=1;marginBottom=0;" parent="1" vertex="1">
          <mxGeometry x="710" y="1410" width="140" height="90" as="geometry" />
        </mxCell>
        <mxCell id="8jqdYVEP_97D0Pi5SaY6-25" value="- content : String" style="text;strokeColor=none;fillColor=none;align=left;verticalAlign=top;spacingLeft=4;spacingRight=4;overflow=hidden;rotatable=0;points=[[0,0.5],[1,0.5]];portConstraint=eastwest;" parent="8jqdYVEP_97D0Pi5SaY6-24" vertex="1">
          <mxGeometry y="26" width="140" height="24" as="geometry" />
        </mxCell>
        <mxCell id="8jqdYVEP_97D0Pi5SaY6-26" value="" style="line;strokeWidth=1;fillColor=none;align=left;verticalAlign=middle;spacingTop=-1;spacingLeft=3;spacingRight=3;rotatable=0;labelPosition=right;points=[];portConstraint=eastwest;" parent="8jqdYVEP_97D0Pi5SaY6-24" vertex="1">
          <mxGeometry y="50" width="140" height="8" as="geometry" />
        </mxCell>
        <mxCell id="8jqdYVEP_97D0Pi5SaY6-27" value="+ getContents() : String" style="text;strokeColor=none;fillColor=none;align=left;verticalAlign=top;spacingLeft=4;spacingRight=4;overflow=hidden;rotatable=0;points=[[0,0.5],[1,0.5]];portConstraint=eastwest;" parent="8jqdYVEP_97D0Pi5SaY6-24" vertex="1">
          <mxGeometry y="58" width="140" height="32" as="geometry" />
        </mxCell>
        <mxCell id="8jqdYVEP_97D0Pi5SaY6-28" style="edgeStyle=orthogonalEdgeStyle;rounded=0;orthogonalLoop=1;jettySize=auto;html=1;endArrow=openThin;endFill=0;endSize=14;" parent="1" source="G27WGiiaCzAnjPOhc22A-1" target="8jqdYVEP_97D0Pi5SaY6-24" edge="1">
          <mxGeometry relative="1" as="geometry">
            <Array as="points">
              <mxPoint x="850" y="1360" />
              <mxPoint x="780" y="1360" />
            </Array>
            <mxPoint x="530" y="1000" as="sourcePoint" />
            <mxPoint x="440" y="1000" as="targetPoint" />
          </mxGeometry>
        </mxCell>
        <mxCell id="8jqdYVEP_97D0Pi5SaY6-29" value="use" style="edgeLabel;html=1;align=center;verticalAlign=middle;resizable=0;points=[];" parent="8jqdYVEP_97D0Pi5SaY6-28" vertex="1" connectable="0">
          <mxGeometry x="-0.2106" y="-1" relative="1" as="geometry">
            <mxPoint x="-9" y="-9" as="offset" />
          </mxGeometry>
        </mxCell>
        <mxCell id="8jqdYVEP_97D0Pi5SaY6-34" value="RemoteClient" style="swimlane;fontStyle=1;align=center;verticalAlign=top;childLayout=stackLayout;horizontal=1;startSize=26;horizontalStack=0;resizeParent=1;resizeParentMax=0;resizeLast=0;collapsible=1;marginBottom=0;" parent="1" vertex="1">
          <mxGeometry x="602.5" y="-230" width="200" height="90" as="geometry" />
        </mxCell>
        <mxCell id="8jqdYVEP_97D0Pi5SaY6-35" value="- connection : TcpSocket&#xa;" style="text;strokeColor=none;fillColor=none;align=left;verticalAlign=top;spacingLeft=4;spacingRight=4;overflow=hidden;rotatable=0;points=[[0,0.5],[1,0.5]];portConstraint=eastwest;" parent="8jqdYVEP_97D0Pi5SaY6-34" vertex="1">
          <mxGeometry y="26" width="200" height="34" as="geometry" />
        </mxCell>
        <mxCell id="8jqdYVEP_97D0Pi5SaY6-36" value="" style="line;strokeWidth=1;fillColor=none;align=left;verticalAlign=middle;spacingTop=-1;spacingLeft=3;spacingRight=3;rotatable=0;labelPosition=right;points=[];portConstraint=eastwest;" parent="8jqdYVEP_97D0Pi5SaY6-34" vertex="1">
          <mxGeometry y="60" width="200" height="8" as="geometry" />
        </mxCell>
        <mxCell id="8jqdYVEP_97D0Pi5SaY6-37" value=" " style="text;strokeColor=none;fillColor=none;align=left;verticalAlign=top;spacingLeft=4;spacingRight=4;overflow=hidden;rotatable=0;points=[[0,0.5],[1,0.5]];portConstraint=eastwest;" parent="8jqdYVEP_97D0Pi5SaY6-34" vertex="1">
          <mxGeometry y="68" width="200" height="22" as="geometry" />
        </mxCell>
        <mxCell id="8jqdYVEP_97D0Pi5SaY6-38" value="" style="endArrow=none;html=1;rounded=0;edgeStyle=orthogonalEdgeStyle;startArrow=block;startFill=0;startSize=14;endSize=14;entryX=0.5;entryY=0;entryDx=0;entryDy=0;" parent="1" source="G27WGiiaCzAnjPOhc22A-13" target="8jqdYVEP_97D0Pi5SaY6-34" edge="1">
          <mxGeometry width="50" height="50" relative="1" as="geometry">
            <mxPoint x="720" y="-335" as="sourcePoint" />
            <mxPoint x="1100" y="-220" as="targetPoint" />
            <Array as="points">
              <mxPoint x="880" y="-270" />
              <mxPoint x="703" y="-270" />
            </Array>
          </mxGeometry>
        </mxCell>
        <mxCell id="8jqdYVEP_97D0Pi5SaY6-39" value="JoiningClientsConnector" style="swimlane;fontStyle=1;align=center;verticalAlign=top;childLayout=stackLayout;horizontal=1;startSize=26;horizontalStack=0;resizeParent=1;resizeParentMax=0;resizeLast=0;collapsible=1;marginBottom=0;" parent="1" vertex="1">
          <mxGeometry x="587.5" y="-90" width="230" height="110" as="geometry" />
        </mxCell>
        <mxCell id="8jqdYVEP_97D0Pi5SaY6-40" value="- server : Server&#xa;- tcpServer : TcpServer" style="text;strokeColor=none;fillColor=none;align=left;verticalAlign=top;spacingLeft=4;spacingRight=4;overflow=hidden;rotatable=0;points=[[0,0.5],[1,0.5]];portConstraint=eastwest;" parent="8jqdYVEP_97D0Pi5SaY6-39" vertex="1">
          <mxGeometry y="26" width="230" height="44" as="geometry" />
        </mxCell>
        <mxCell id="8jqdYVEP_97D0Pi5SaY6-41" value="" style="line;strokeWidth=1;fillColor=none;align=left;verticalAlign=middle;spacingTop=-1;spacingLeft=3;spacingRight=3;rotatable=0;labelPosition=right;points=[];portConstraint=eastwest;" parent="8jqdYVEP_97D0Pi5SaY6-39" vertex="1">
          <mxGeometry y="70" width="230" height="8" as="geometry" />
        </mxCell>
        <mxCell id="8jqdYVEP_97D0Pi5SaY6-42" value="+ run() : void" style="text;strokeColor=none;fillColor=none;align=left;verticalAlign=top;spacingLeft=4;spacingRight=4;overflow=hidden;rotatable=0;points=[[0,0.5],[1,0.5]];portConstraint=eastwest;" parent="8jqdYVEP_97D0Pi5SaY6-39" vertex="1">
          <mxGeometry y="78" width="230" height="32" as="geometry" />
        </mxCell>
        <mxCell id="8jqdYVEP_97D0Pi5SaY6-43" value="RemoteServer" style="swimlane;fontStyle=1;align=center;verticalAlign=top;childLayout=stackLayout;horizontal=1;startSize=26;horizontalStack=0;resizeParent=1;resizeParentMax=0;resizeLast=0;collapsible=1;marginBottom=0;" parent="1" vertex="1">
          <mxGeometry x="710" y="265" width="200" height="90" as="geometry" />
        </mxCell>
        <mxCell id="8jqdYVEP_97D0Pi5SaY6-44" value="- connection : TcpSocket" style="text;strokeColor=none;fillColor=none;align=left;verticalAlign=top;spacingLeft=4;spacingRight=4;overflow=hidden;rotatable=0;points=[[0,0.5],[1,0.5]];portConstraint=eastwest;" parent="8jqdYVEP_97D0Pi5SaY6-43" vertex="1">
          <mxGeometry y="26" width="200" height="34" as="geometry" />
        </mxCell>
        <mxCell id="8jqdYVEP_97D0Pi5SaY6-45" value="" style="line;strokeWidth=1;fillColor=none;align=left;verticalAlign=middle;spacingTop=-1;spacingLeft=3;spacingRight=3;rotatable=0;labelPosition=right;points=[];portConstraint=eastwest;" parent="8jqdYVEP_97D0Pi5SaY6-43" vertex="1">
          <mxGeometry y="60" width="200" height="8" as="geometry" />
        </mxCell>
        <mxCell id="8jqdYVEP_97D0Pi5SaY6-46" value=" " style="text;strokeColor=none;fillColor=none;align=left;verticalAlign=top;spacingLeft=4;spacingRight=4;overflow=hidden;rotatable=0;points=[[0,0.5],[1,0.5]];portConstraint=eastwest;" parent="8jqdYVEP_97D0Pi5SaY6-43" vertex="1">
          <mxGeometry y="68" width="200" height="22" as="geometry" />
        </mxCell>
        <mxCell id="8jqdYVEP_97D0Pi5SaY6-47" value="" style="endArrow=none;html=1;rounded=0;edgeStyle=orthogonalEdgeStyle;startArrow=block;startFill=0;startSize=14;endSize=14;entryX=0.5;entryY=0;entryDx=0;entryDy=0;" parent="1" source="in2eyDOJDBMRCDKq5YES-4" target="8jqdYVEP_97D0Pi5SaY6-43" edge="1">
          <mxGeometry width="50" height="50" relative="1" as="geometry">
            <mxPoint x="650" y="170" as="sourcePoint" />
            <mxPoint x="650" y="275" as="targetPoint" />
            <Array as="points">
              <mxPoint x="900" y="230" />
              <mxPoint x="810" y="230" />
            </Array>
          </mxGeometry>
        </mxCell>
        <mxCell id="8jqdYVEP_97D0Pi5SaY6-48" style="edgeStyle=orthogonalEdgeStyle;rounded=0;orthogonalLoop=1;jettySize=auto;html=1;endArrow=diamondThin;endFill=1;endSize=14;entryX=1;entryY=0.291;entryDx=0;entryDy=0;entryPerimeter=0;" parent="1" edge="1">
          <mxGeometry relative="1" as="geometry">
            <Array as="points">
              <mxPoint x="588" y="-80" />
              <mxPoint x="540" y="-80" />
              <mxPoint x="540" y="-205" />
            </Array>
            <mxPoint x="587.5" y="-73" as="sourcePoint" />
            <mxPoint x="440.0000000000001" y="-204.98999999999978" as="targetPoint" />
          </mxGeometry>
        </mxCell>
        <mxCell id="8jqdYVEP_97D0Pi5SaY6-51" style="edgeStyle=orthogonalEdgeStyle;rounded=0;orthogonalLoop=1;jettySize=auto;html=1;endArrow=openThin;endFill=0;endSize=14;" parent="1" source="8jqdYVEP_97D0Pi5SaY6-39" target="8jqdYVEP_97D0Pi5SaY6-34" edge="1">
          <mxGeometry relative="1" as="geometry">
            <Array as="points" />
            <mxPoint x="780.0000000000002" y="360" as="sourcePoint" />
            <mxPoint x="780.0000000000002" y="295" as="targetPoint" />
          </mxGeometry>
        </mxCell>
        <mxCell id="8jqdYVEP_97D0Pi5SaY6-52" value="create" style="edgeLabel;html=1;align=center;verticalAlign=middle;resizable=0;points=[];" parent="8jqdYVEP_97D0Pi5SaY6-51" vertex="1" connectable="0">
          <mxGeometry x="-0.2106" y="-1" relative="1" as="geometry">
            <mxPoint x="-23" as="offset" />
          </mxGeometry>
        </mxCell>
        <mxCell id="MCNNYZvKGiZpvM74iHSk-1" value="Settings" style="swimlane;fontStyle=1;align=center;verticalAlign=top;childLayout=stackLayout;horizontal=1;startSize=26;horizontalStack=0;resizeParent=1;resizeParentMax=0;resizeLast=0;collapsible=1;marginBottom=0;" parent="1" vertex="1">
          <mxGeometry x="210" y="1090" width="190" height="120" as="geometry" />
        </mxCell>
        <mxCell id="MCNNYZvKGiZpvM74iHSk-2" value="- fields : SettingsMap" style="text;strokeColor=none;fillColor=none;align=left;verticalAlign=top;spacingLeft=4;spacingRight=4;overflow=hidden;rotatable=0;points=[[0,0.5],[1,0.5]];portConstraint=eastwest;" parent="MCNNYZvKGiZpvM74iHSk-1" vertex="1">
          <mxGeometry y="26" width="190" height="34" as="geometry" />
        </mxCell>
        <mxCell id="MCNNYZvKGiZpvM74iHSk-3" value="" style="line;strokeWidth=1;fillColor=none;align=left;verticalAlign=middle;spacingTop=-1;spacingLeft=3;spacingRight=3;rotatable=0;labelPosition=right;points=[];portConstraint=eastwest;" parent="MCNNYZvKGiZpvM74iHSk-1" vertex="1">
          <mxGeometry y="60" width="190" height="8" as="geometry" />
        </mxCell>
        <mxCell id="MCNNYZvKGiZpvM74iHSk-4" value="+ add(String, SettingValue) : void&#xa;+ get(String) : SettingValue" style="text;strokeColor=none;fillColor=none;align=left;verticalAlign=top;spacingLeft=4;spacingRight=4;overflow=hidden;rotatable=0;points=[[0,0.5],[1,0.5]];portConstraint=eastwest;" parent="MCNNYZvKGiZpvM74iHSk-1" vertex="1">
          <mxGeometry y="68" width="190" height="52" as="geometry" />
        </mxCell>
        <mxCell id="MCNNYZvKGiZpvM74iHSk-5" style="edgeStyle=orthogonalEdgeStyle;rounded=0;orthogonalLoop=1;jettySize=auto;html=1;endArrow=diamondThin;endFill=0;endSize=14;" parent="1" source="MCNNYZvKGiZpvM74iHSk-1" target="UTBrPVDNq_zUBes7hR2i-2" edge="1">
          <mxGeometry relative="1" as="geometry">
            <Array as="points">
              <mxPoint x="100" y="1110" />
              <mxPoint x="100" y="-158" />
            </Array>
            <mxPoint x="530" y="906.0022222222224" as="sourcePoint" />
            <mxPoint x="140" y="-153.99777777777766" as="targetPoint" />
          </mxGeometry>
        </mxCell>
        <mxCell id="OU7vo8ciOF70PuqaSGEt-1" style="edgeStyle=orthogonalEdgeStyle;rounded=0;orthogonalLoop=1;jettySize=auto;html=1;endArrow=openThin;endFill=0;endSize=14;" parent="1" source="UTBrPVDNq_zUBes7hR2i-10" target="MCNNYZvKGiZpvM74iHSk-1" edge="1">
          <mxGeometry relative="1" as="geometry">
            <Array as="points">
              <mxPoint x="570" y="1100" />
            </Array>
            <mxPoint x="595.04" y="1150" as="sourcePoint" />
            <mxPoint x="790" y="1250.04" as="targetPoint" />
          </mxGeometry>
        </mxCell>
        <mxCell id="OU7vo8ciOF70PuqaSGEt-2" value="create" style="edgeLabel;html=1;align=center;verticalAlign=middle;resizable=0;points=[];" parent="OU7vo8ciOF70PuqaSGEt-1" vertex="1" connectable="0">
          <mxGeometry x="-0.2106" y="-1" relative="1" as="geometry">
            <mxPoint x="-30" y="-9" as="offset" />
          </mxGeometry>
        </mxCell>
        <mxCell id="OU7vo8ciOF70PuqaSGEt-3" value="GraphicsStorage" style="swimlane;fontStyle=1;align=center;verticalAlign=top;childLayout=stackLayout;horizontal=1;startSize=26;horizontalStack=0;resizeParent=1;resizeParentMax=0;resizeLast=0;collapsible=1;marginBottom=0;" parent="1" vertex="1">
          <mxGeometry x="510" y="-684" width="210" height="120" as="geometry" />
        </mxCell>
        <mxCell id="OU7vo8ciOF70PuqaSGEt-4" value="- graphics : PixmapMap" style="text;strokeColor=none;fillColor=none;align=left;verticalAlign=top;spacingLeft=4;spacingRight=4;overflow=hidden;rotatable=0;points=[[0,0.5],[1,0.5]];portConstraint=eastwest;" parent="OU7vo8ciOF70PuqaSGEt-3" vertex="1">
          <mxGeometry y="26" width="210" height="34" as="geometry" />
        </mxCell>
        <mxCell id="OU7vo8ciOF70PuqaSGEt-5" value="" style="line;strokeWidth=1;fillColor=none;align=left;verticalAlign=middle;spacingTop=-1;spacingLeft=3;spacingRight=3;rotatable=0;labelPosition=right;points=[];portConstraint=eastwest;" parent="OU7vo8ciOF70PuqaSGEt-3" vertex="1">
          <mxGeometry y="60" width="210" height="8" as="geometry" />
        </mxCell>
        <mxCell id="OU7vo8ciOF70PuqaSGEt-6" value="+ getInstance() : GraphicsStoragePtr&#xa;+ get(String) : Pixmap" style="text;strokeColor=none;fillColor=none;align=left;verticalAlign=top;spacingLeft=4;spacingRight=4;overflow=hidden;rotatable=0;points=[[0,0.5],[1,0.5]];portConstraint=eastwest;fontStyle=0" parent="OU7vo8ciOF70PuqaSGEt-3" vertex="1">
          <mxGeometry y="68" width="210" height="52" as="geometry" />
        </mxCell>
        <mxCell id="OU7vo8ciOF70PuqaSGEt-7" style="edgeStyle=orthogonalEdgeStyle;rounded=0;orthogonalLoop=1;jettySize=auto;html=1;endArrow=diamondThin;endFill=1;endSize=14;" parent="1" source="OU7vo8ciOF70PuqaSGEt-3" target="UTBrPVDNq_zUBes7hR2i-1" edge="1">
          <mxGeometry relative="1" as="geometry">
            <Array as="points">
              <mxPoint x="490" y="-670" />
              <mxPoint x="490" y="-230" />
            </Array>
            <mxPoint x="830" y="-490" as="sourcePoint" />
            <mxPoint x="450" y="-202.10800000000017" as="targetPoint" />
          </mxGeometry>
        </mxCell>
        <mxCell id="OU7vo8ciOF70PuqaSGEt-14" value="Used as Singleton by classes where Pixmaps are needed. For example GameScene, MenuCursor or HUD" style="shape=note2;boundedLbl=1;whiteSpace=wrap;html=1;size=17;verticalAlign=top;align=left;spacingLeft=10;spacingRight=10;spacingTop=0;spacing=0;textOpacity=70;" parent="1" vertex="1">
          <mxGeometry x="800" y="-740" width="120" height="150" as="geometry" />
        </mxCell>
        <mxCell id="OU7vo8ciOF70PuqaSGEt-15" value="" style="html=1;verticalAlign=bottom;labelBackgroundColor=none;endArrow=none;endFill=0;dashed=1;rounded=0;entryX=1.005;entryY=0.144;entryDx=0;entryDy=0;entryPerimeter=0;exitX=0.012;exitY=0.146;exitDx=0;exitDy=0;exitPerimeter=0;" parent="1" source="OU7vo8ciOF70PuqaSGEt-14" target="OU7vo8ciOF70PuqaSGEt-3" edge="1">
          <mxGeometry width="160" relative="1" as="geometry">
            <mxPoint x="600" y="-790" as="sourcePoint" />
            <mxPoint x="760" y="-790" as="targetPoint" />
          </mxGeometry>
        </mxCell>
        <mxCell id="OU7vo8ciOF70PuqaSGEt-16" value="SoundsStorage" style="swimlane;fontStyle=1;align=center;verticalAlign=top;childLayout=stackLayout;horizontal=1;startSize=26;horizontalStack=0;resizeParent=1;resizeParentMax=0;resizeLast=0;collapsible=1;marginBottom=0;" parent="1" vertex="1">
          <mxGeometry x="510" y="-874" width="210" height="120" as="geometry" />
        </mxCell>
        <mxCell id="OU7vo8ciOF70PuqaSGEt-17" value="- sounds : SoundMap" style="text;strokeColor=none;fillColor=none;align=left;verticalAlign=top;spacingLeft=4;spacingRight=4;overflow=hidden;rotatable=0;points=[[0,0.5],[1,0.5]];portConstraint=eastwest;" parent="OU7vo8ciOF70PuqaSGEt-16" vertex="1">
          <mxGeometry y="26" width="210" height="34" as="geometry" />
        </mxCell>
        <mxCell id="OU7vo8ciOF70PuqaSGEt-18" value="" style="line;strokeWidth=1;fillColor=none;align=left;verticalAlign=middle;spacingTop=-1;spacingLeft=3;spacingRight=3;rotatable=0;labelPosition=right;points=[];portConstraint=eastwest;" parent="OU7vo8ciOF70PuqaSGEt-16" vertex="1">
          <mxGeometry y="60" width="210" height="8" as="geometry" />
        </mxCell>
        <mxCell id="OU7vo8ciOF70PuqaSGEt-19" value="+ getInstance() : GraphicsStoragePtr&#xa;+ get(String) : Sound" style="text;strokeColor=none;fillColor=none;align=left;verticalAlign=top;spacingLeft=4;spacingRight=4;overflow=hidden;rotatable=0;points=[[0,0.5],[1,0.5]];portConstraint=eastwest;fontStyle=0" parent="OU7vo8ciOF70PuqaSGEt-16" vertex="1">
          <mxGeometry y="68" width="210" height="52" as="geometry" />
        </mxCell>
        <mxCell id="OU7vo8ciOF70PuqaSGEt-20" value="Used as Singleton by classes where Sounds are needed. For example GameScene" style="shape=note2;boundedLbl=1;whiteSpace=wrap;html=1;size=17;verticalAlign=top;align=left;spacingLeft=10;spacingRight=10;spacingTop=0;spacing=0;textOpacity=70;" parent="1" vertex="1">
          <mxGeometry x="800" y="-910" width="120" height="120" as="geometry" />
        </mxCell>
        <mxCell id="OU7vo8ciOF70PuqaSGEt-21" value="" style="html=1;verticalAlign=bottom;labelBackgroundColor=none;endArrow=none;endFill=0;dashed=1;rounded=0;entryX=1.005;entryY=0.144;entryDx=0;entryDy=0;entryPerimeter=0;exitX=0.012;exitY=0.146;exitDx=0;exitDy=0;exitPerimeter=0;" parent="1" source="OU7vo8ciOF70PuqaSGEt-20" target="OU7vo8ciOF70PuqaSGEt-16" edge="1">
          <mxGeometry width="160" relative="1" as="geometry">
            <mxPoint x="600" y="-980" as="sourcePoint" />
            <mxPoint x="760" y="-980" as="targetPoint" />
          </mxGeometry>
        </mxCell>
        <mxCell id="OU7vo8ciOF70PuqaSGEt-22" style="edgeStyle=orthogonalEdgeStyle;rounded=0;orthogonalLoop=1;jettySize=auto;html=1;endArrow=diamondThin;endFill=1;endSize=14;" parent="1" edge="1">
          <mxGeometry relative="1" as="geometry">
            <Array as="points">
              <mxPoint x="470" y="-854" />
              <mxPoint x="470" y="-244" />
            </Array>
            <mxPoint x="510" y="-854" as="sourcePoint" />
            <mxPoint x="440" y="-244" as="targetPoint" />
          </mxGeometry>
        </mxCell>
        <mxCell id="OU7vo8ciOF70PuqaSGEt-23" value="MultiplayerJoin" style="swimlane;fontStyle=1;align=center;verticalAlign=top;childLayout=stackLayout;horizontal=1;startSize=26;horizontalStack=0;resizeParent=1;resizeParentMax=0;resizeLast=0;collapsible=1;marginBottom=0;spacingLeft=7;" parent="1" vertex="1">
          <mxGeometry x="210" y="960" width="131" height="90" as="geometry" />
        </mxCell>
        <mxCell id="OU7vo8ciOF70PuqaSGEt-24" value="+ ip: IPAddress&#xa;+ playerName : String" style="text;strokeColor=none;fillColor=none;align=left;verticalAlign=top;spacingLeft=4;spacingRight=4;overflow=hidden;rotatable=0;points=[[0,0.5],[1,0.5]];portConstraint=eastwest;" parent="OU7vo8ciOF70PuqaSGEt-23" vertex="1">
          <mxGeometry y="26" width="131" height="34" as="geometry" />
        </mxCell>
        <mxCell id="OU7vo8ciOF70PuqaSGEt-25" value="" style="line;strokeWidth=1;fillColor=none;align=left;verticalAlign=middle;spacingTop=-1;spacingLeft=3;spacingRight=3;rotatable=0;labelPosition=right;points=[];portConstraint=eastwest;" parent="OU7vo8ciOF70PuqaSGEt-23" vertex="1">
          <mxGeometry y="60" width="131" height="8" as="geometry" />
        </mxCell>
        <mxCell id="OU7vo8ciOF70PuqaSGEt-26" value=" " style="text;strokeColor=none;fillColor=none;align=left;verticalAlign=top;spacingLeft=4;spacingRight=4;overflow=hidden;rotatable=0;points=[[0,0.5],[1,0.5]];portConstraint=eastwest;" parent="OU7vo8ciOF70PuqaSGEt-23" vertex="1">
          <mxGeometry y="68" width="131" height="22" as="geometry" />
        </mxCell>
        <mxCell id="OU7vo8ciOF70PuqaSGEt-27" style="edgeStyle=orthogonalEdgeStyle;rounded=0;orthogonalLoop=1;jettySize=auto;html=1;endArrow=openThin;endFill=0;endSize=14;" parent="1" source="UTBrPVDNq_zUBes7hR2i-10" target="OU7vo8ciOF70PuqaSGEt-23" edge="1">
          <mxGeometry relative="1" as="geometry">
            <Array as="points">
              <mxPoint x="440" y="1005" />
              <mxPoint x="440" y="1005" />
            </Array>
            <mxPoint x="550" y="1160" as="sourcePoint" />
            <mxPoint x="550" y="1300" as="targetPoint" />
          </mxGeometry>
        </mxCell>
        <mxCell id="OU7vo8ciOF70PuqaSGEt-28" value="create" style="edgeLabel;html=1;align=center;verticalAlign=middle;resizable=0;points=[];" parent="OU7vo8ciOF70PuqaSGEt-27" vertex="1" connectable="0">
          <mxGeometry x="-0.2106" y="-1" relative="1" as="geometry">
            <mxPoint x="-2" y="-8" as="offset" />
          </mxGeometry>
        </mxCell>
        <mxCell id="OU7vo8ciOF70PuqaSGEt-29" style="edgeStyle=orthogonalEdgeStyle;rounded=0;orthogonalLoop=1;jettySize=auto;html=1;endArrow=openThin;endFill=0;endSize=14;" parent="1" source="UTBrPVDNq_zUBes7hR2i-4" target="OU7vo8ciOF70PuqaSGEt-23" edge="1">
          <mxGeometry relative="1" as="geometry">
            <Array as="points">
              <mxPoint x="270" y="940" />
              <mxPoint x="270" y="940" />
            </Array>
            <mxPoint x="625" y="770" as="sourcePoint" />
            <mxPoint x="850" y="860" as="targetPoint" />
          </mxGeometry>
        </mxCell>
        <mxCell id="OU7vo8ciOF70PuqaSGEt-30" value="use" style="edgeLabel;html=1;align=center;verticalAlign=middle;resizable=0;points=[];" parent="OU7vo8ciOF70PuqaSGEt-29" vertex="1" connectable="0">
          <mxGeometry x="-0.2106" y="-1" relative="1" as="geometry">
            <mxPoint x="-29" y="-393" as="offset" />
          </mxGeometry>
        </mxCell>
        <mxCell id="GTzYMo_n2N5U_mKsKVs6-1" value="Widget" style="swimlane;fontStyle=3;align=center;verticalAlign=top;childLayout=stackLayout;horizontal=1;startSize=26;horizontalStack=0;resizeParent=1;resizeParentMax=0;resizeLast=0;collapsible=1;marginBottom=0;" parent="1" vertex="1">
          <mxGeometry x="1100" y="950" width="220" height="180" as="geometry" />
        </mxCell>
        <mxCell id="GTzYMo_n2N5U_mKsKVs6-3" value="" style="line;strokeWidth=1;fillColor=none;align=left;verticalAlign=middle;spacingTop=-1;spacingLeft=3;spacingRight=3;rotatable=0;labelPosition=right;points=[];portConstraint=eastwest;" parent="GTzYMo_n2N5U_mKsKVs6-1" vertex="1">
          <mxGeometry y="26" width="220" height="8" as="geometry" />
        </mxCell>
        <mxCell id="GTzYMo_n2N5U_mKsKVs6-4" value="+ type() : WidgetType&#xa;+ geometry() : WidgetGeometry&#xa;+ setGeometry(WidgetGeometry) : void &#xa;+ text() : WidgetText&#xa;+ setText(WidgetText) : void&#xa;+ style() : WidgetStyle&#xa;+ setStyle(WidgetStyle) : void&#xa;+ show() : void&#xa;+ hide() : void" style="text;strokeColor=none;fillColor=none;align=left;verticalAlign=top;spacingLeft=4;spacingRight=4;overflow=hidden;rotatable=0;points=[[0,0.5],[1,0.5]];portConstraint=eastwest;" parent="GTzYMo_n2N5U_mKsKVs6-1" vertex="1">
          <mxGeometry y="34" width="220" height="146" as="geometry" />
        </mxCell>
        <mxCell id="GTzYMo_n2N5U_mKsKVs6-5" style="edgeStyle=orthogonalEdgeStyle;rounded=0;orthogonalLoop=1;jettySize=auto;html=1;endArrow=diamondThin;endFill=1;endSize=14;" parent="1" source="GTzYMo_n2N5U_mKsKVs6-1" target="UTBrPVDNq_zUBes7hR2i-15" edge="1">
          <mxGeometry relative="1" as="geometry">
            <Array as="points">
              <mxPoint x="1060" y="960" />
              <mxPoint x="1060" y="960" />
            </Array>
            <mxPoint x="1171" y="1030" as="sourcePoint" />
            <mxPoint x="1080" y="940" as="targetPoint" />
          </mxGeometry>
        </mxCell>
        <mxCell id="GTzYMo_n2N5U_mKsKVs6-6" value="ControlWidget" style="swimlane;fontStyle=3;align=center;verticalAlign=top;childLayout=stackLayout;horizontal=1;startSize=26;horizontalStack=0;resizeParent=1;resizeParentMax=0;resizeLast=0;collapsible=1;marginBottom=0;" parent="1" vertex="1">
          <mxGeometry x="1350" y="1180" width="210" height="70" as="geometry" />
        </mxCell>
        <mxCell id="GTzYMo_n2N5U_mKsKVs6-7" value="" style="line;strokeWidth=1;fillColor=none;align=left;verticalAlign=middle;spacingTop=-1;spacingLeft=3;spacingRight=3;rotatable=0;labelPosition=right;points=[];portConstraint=eastwest;" parent="GTzYMo_n2N5U_mKsKVs6-6" vertex="1">
          <mxGeometry y="26" width="210" height="8" as="geometry" />
        </mxCell>
        <mxCell id="GTzYMo_n2N5U_mKsKVs6-8" value="+ connect(WidgetConnection) : void" style="text;strokeColor=none;fillColor=none;align=left;verticalAlign=top;spacingLeft=4;spacingRight=4;overflow=hidden;rotatable=0;points=[[0,0.5],[1,0.5]];portConstraint=eastwest;" parent="GTzYMo_n2N5U_mKsKVs6-6" vertex="1">
          <mxGeometry y="34" width="210" height="36" as="geometry" />
        </mxCell>
        <mxCell id="GTzYMo_n2N5U_mKsKVs6-9" value="" style="endArrow=none;html=1;rounded=0;edgeStyle=orthogonalEdgeStyle;startArrow=block;startFill=0;startSize=14;endSize=14;" parent="1" source="GTzYMo_n2N5U_mKsKVs6-1" target="GTzYMo_n2N5U_mKsKVs6-6" edge="1">
          <mxGeometry width="50" height="50" relative="1" as="geometry">
            <mxPoint x="1449.98" y="1275" as="sourcePoint" />
            <mxPoint x="1539.98" y="1360" as="targetPoint" />
            <Array as="points">
              <mxPoint x="1255" y="1160" />
              <mxPoint x="1440" y="1160" />
            </Array>
          </mxGeometry>
        </mxCell>
        <mxCell id="GTzYMo_n2N5U_mKsKVs6-10" value="WidgetFactory" style="swimlane;fontStyle=3;align=center;verticalAlign=top;childLayout=stackLayout;horizontal=1;startSize=26;horizontalStack=0;resizeParent=1;resizeParentMax=0;resizeLast=0;collapsible=1;marginBottom=0;" parent="1" vertex="1">
          <mxGeometry x="930" y="1415" width="240" height="80" as="geometry" />
        </mxCell>
        <mxCell id="GTzYMo_n2N5U_mKsKVs6-11" value="" style="line;strokeWidth=1;fillColor=none;align=left;verticalAlign=middle;spacingTop=-1;spacingLeft=3;spacingRight=3;rotatable=0;labelPosition=right;points=[];portConstraint=eastwest;" parent="GTzYMo_n2N5U_mKsKVs6-10" vertex="1">
          <mxGeometry y="26" width="240" height="8" as="geometry" />
        </mxCell>
        <mxCell id="GTzYMo_n2N5U_mKsKVs6-12" value="+ create(WidgetType, WidgetGeometry,&#xa;              WidgetText, WidgetStyle) : Widget" style="text;strokeColor=none;fillColor=none;align=left;verticalAlign=top;spacingLeft=4;spacingRight=4;overflow=hidden;rotatable=0;points=[[0,0.5],[1,0.5]];portConstraint=eastwest;" parent="GTzYMo_n2N5U_mKsKVs6-10" vertex="1">
          <mxGeometry y="34" width="240" height="46" as="geometry" />
        </mxCell>
        <mxCell id="GTzYMo_n2N5U_mKsKVs6-13" style="edgeStyle=orthogonalEdgeStyle;rounded=0;orthogonalLoop=1;jettySize=auto;html=1;endArrow=openThin;endFill=0;endSize=14;" parent="1" source="G27WGiiaCzAnjPOhc22A-1" target="GTzYMo_n2N5U_mKsKVs6-10" edge="1">
          <mxGeometry relative="1" as="geometry">
            <Array as="points">
              <mxPoint x="930" y="1360" />
              <mxPoint x="970" y="1360" />
            </Array>
            <mxPoint x="1090" y="1340" as="sourcePoint" />
            <mxPoint x="1020" y="1440" as="targetPoint" />
          </mxGeometry>
        </mxCell>
        <mxCell id="GTzYMo_n2N5U_mKsKVs6-14" value="use" style="edgeLabel;html=1;align=center;verticalAlign=middle;resizable=0;points=[];" parent="GTzYMo_n2N5U_mKsKVs6-13" vertex="1" connectable="0">
          <mxGeometry x="-0.2106" y="-1" relative="1" as="geometry">
            <mxPoint x="13" y="-11" as="offset" />
          </mxGeometry>
        </mxCell>
        <mxCell id="GTzYMo_n2N5U_mKsKVs6-15" style="edgeStyle=orthogonalEdgeStyle;rounded=0;orthogonalLoop=1;jettySize=auto;html=1;endArrow=openThin;endFill=0;endSize=14;" parent="1" source="GTzYMo_n2N5U_mKsKVs6-10" target="GTzYMo_n2N5U_mKsKVs6-1" edge="1">
          <mxGeometry relative="1" as="geometry">
            <Array as="points">
              <mxPoint x="1130" y="1180" />
              <mxPoint x="1150" y="1180" />
            </Array>
            <mxPoint x="1020" y="1290" as="sourcePoint" />
            <mxPoint x="1020" y="1200" as="targetPoint" />
          </mxGeometry>
        </mxCell>
        <mxCell id="GTzYMo_n2N5U_mKsKVs6-16" value="create" style="edgeLabel;html=1;align=center;verticalAlign=middle;resizable=0;points=[];" parent="GTzYMo_n2N5U_mKsKVs6-15" vertex="1" connectable="0">
          <mxGeometry x="-0.2106" y="-1" relative="1" as="geometry">
            <mxPoint x="-21" y="-7" as="offset" />
          </mxGeometry>
        </mxCell>
        <mxCell id="GTzYMo_n2N5U_mKsKVs6-21" value="IMenuController" style="swimlane;fontStyle=3;align=center;verticalAlign=top;childLayout=stackLayout;horizontal=1;startSize=26;horizontalStack=0;resizeParent=1;resizeParentMax=0;resizeLast=0;collapsible=1;marginBottom=0;" parent="1" vertex="1">
          <mxGeometry x="520" y="760" width="220" height="150" as="geometry" />
        </mxCell>
        <mxCell id="GTzYMo_n2N5U_mKsKVs6-22" value="" style="line;strokeWidth=1;fillColor=none;align=left;verticalAlign=middle;spacingTop=-1;spacingLeft=3;spacingRight=3;rotatable=0;labelPosition=right;points=[];portConstraint=eastwest;" parent="GTzYMo_n2N5U_mKsKVs6-21" vertex="1">
          <mxGeometry y="26" width="220" height="8" as="geometry" />
        </mxCell>
        <mxCell id="GTzYMo_n2N5U_mKsKVs6-23" value="+ handle(WidgetCommand) : void&#xa;+ connect(MenuConnection) : void&#xa;+ showCurrentMenu() : void&#xa;+ hideCurrentMenu() : void&#xa;+ getNewSettings() : Settings&#xa;+ getMulitplayerJoin() : MultiplayerJoin&#xa;" style="text;strokeColor=none;fillColor=none;align=left;verticalAlign=top;spacingLeft=4;spacingRight=4;overflow=hidden;rotatable=0;points=[[0,0.5],[1,0.5]];portConstraint=eastwest;" parent="GTzYMo_n2N5U_mKsKVs6-21" vertex="1">
          <mxGeometry y="34" width="220" height="116" as="geometry" />
        </mxCell>
        <mxCell id="GTzYMo_n2N5U_mKsKVs6-24" value="" style="endArrow=none;html=1;rounded=0;edgeStyle=orthogonalEdgeStyle;startArrow=block;startFill=0;startSize=14;endSize=14;" parent="1" source="GTzYMo_n2N5U_mKsKVs6-21" target="UTBrPVDNq_zUBes7hR2i-10" edge="1">
          <mxGeometry width="50" height="50" relative="1" as="geometry">
            <mxPoint x="740" y="880" as="sourcePoint" />
            <mxPoint x="740" y="930" as="targetPoint" />
            <Array as="points" />
          </mxGeometry>
        </mxCell>
        <mxCell id="GTzYMo_n2N5U_mKsKVs6-26" style="edgeStyle=orthogonalEdgeStyle;rounded=0;orthogonalLoop=1;jettySize=auto;html=1;endArrow=diamondThin;endFill=0;endSize=14;" parent="1" source="GTzYMo_n2N5U_mKsKVs6-10" target="G27WGiiaCzAnjPOhc22A-1" edge="1">
          <mxGeometry relative="1" as="geometry">
            <Array as="points">
              <mxPoint x="1040" y="1240" />
            </Array>
            <mxPoint x="1155" y="1040" as="sourcePoint" />
            <mxPoint x="1040" y="1200" as="targetPoint" />
          </mxGeometry>
        </mxCell>
      </root>
    </mxGraphModel>
  </diagram>
</mxfile>
